<svg width="50" height="50" viewBox="0 0 50 50" fill="none" xmlns="http://www.w3.org/2000/svg">
<path d="M16.6667 20.3125C16.6667 21.1667 17.375 21.875 18.2292 21.875H21.3542V29.6875C21.3542 30.5417 22.0625 31.25 22.9167 31.25C23.7709 31.25 24.4792 30.5417 24.4792 29.6875V21.875H27.6042C28.4584 21.875 29.1667 21.1667 29.1667 20.3125C29.1667 19.4583 28.4584 18.75 27.6042 18.75H18.2292C17.375 18.75 16.6667 19.4583 16.6667 20.3125ZM12.5 18.75H6.25002C5.10419 18.75 4.16669 19.6875 4.16669 20.8333V29.6875C4.16669 30.5417 4.87502 31.25 5.72919 31.25C6.58335 31.25 7.29169 30.5417 7.29169 29.6875V28.125H11.4584V29.6875C11.4584 30.5417 12.1667 31.25 13.0209 31.25C13.875 31.25 14.5834 30.5417 14.5834 29.6875V20.8333C14.5834 19.6875 13.6459 18.75 12.5 18.75ZM11.4584 25H7.29169V21.875H11.4584V25ZM43.75 18.75H34.375C33.2292 18.75 32.2917 19.6875 32.2917 20.8333V29.6875C32.2917 30.5417 33 31.25 33.8542 31.25C34.7084 31.25 35.4167 30.5417 35.4167 29.6875V21.875H37.5V27.6042C37.5 28.4583 38.2084 29.1667 39.0625 29.1667C39.9167 29.1667 40.625 28.4583 40.625 27.6042V21.8542H42.7084V29.6875C42.7084 30.5417 43.4167 31.25 44.2709 31.25C45.125 31.25 45.8334 30.5417 45.8334 29.6875V20.8333C45.8334 19.6875 44.8959 18.75 43.75 18.75Z" fill="#E8DDFF"/>
</svg>
