<svg width="50" height="50" viewBox="0 0 50 50" fill="none" xmlns="http://www.w3.org/2000/svg">
<path d="M25 5.20834C16.6666 5.20834 8.33331 6.25 8.33331 13.5417V33.3333C8.33331 37.3542 11.6041 40.625 15.625 40.625L12.5 42.7083V44.7917H37.5V42.7083L34.375 40.625C38.3958 40.625 41.6666 37.3542 41.6666 33.3333V13.5417C41.6666 6.25 34.2083 5.20834 25 5.20834ZM25 9.375C32.7291 9.375 35.6875 10.3333 36.8125 11.4583H13.3958C14.6458 10.375 17.6666 9.375 25 9.375ZM12.5 15.625H22.9166V21.875H12.5V15.625ZM37.5 33.3333C37.5 35.0625 36.1041 36.4583 34.375 36.4583H15.625C13.8958 36.4583 12.5 35.0625 12.5 33.3333V26.0417H37.5V33.3333ZM37.5 21.875H27.0833V15.625H37.5V21.875Z" fill="#E8DDFF"/>
<path d="M17.7083 34.375C19.4342 34.375 20.8333 32.9759 20.8333 31.25C20.8333 29.5241 19.4342 28.125 17.7083 28.125C15.9824 28.125 14.5833 29.5241 14.5833 31.25C14.5833 32.9759 15.9824 34.375 17.7083 34.375Z" fill="#E8DDFF"/>
<path d="M32.2916 34.375C34.0175 34.375 35.4166 32.9759 35.4166 31.25C35.4166 29.5241 34.0175 28.125 32.2916 28.125C30.5658 28.125 29.1666 29.5241 29.1666 31.25C29.1666 32.9759 30.5658 34.375 32.2916 34.375Z" fill="#E8DDFF"/>
</svg>
