<svg width="50" height="50" viewBox="0 0 50 50" fill="none" xmlns="http://www.w3.org/2000/svg">
<path d="M30.7292 12.5C27.875 12.5 25.5209 15.6667 25.5209 19.5833C25.5209 22.6667 26.9792 25.2292 29 26.2083L29.1667 26.2917V39.5833H32.2917V26.2917L32.4584 26.2292C34.4792 25.25 35.9375 22.6875 35.9375 19.6042C35.9375 15.6875 33.6042 12.5 30.7292 12.5ZM21.875 12.5C21.3125 12.5 20.8334 12.9583 20.8334 13.5417V18.75H19.2709V13.5417C19.2709 12.9583 18.8125 12.5 18.2292 12.5C17.6459 12.5 17.1875 12.9583 17.1875 13.5417V18.75H15.625V13.5417C15.625 12.9583 15.1667 12.5 14.5834 12.5C14 12.5 13.5417 12.9583 13.5417 13.5417V21.4583C13.5417 23.3958 14.875 25.0208 16.6667 25.4792V39.5833H19.7917V25.4792C21.5834 25.0208 22.9167 23.3958 22.9167 21.4583V13.5417C22.9167 12.9583 22.4584 12.5 21.875 12.5ZM41.6667 8.33333H8.33335V41.6667H41.6667V8.33333ZM41.6667 4.16667C43.9584 4.16667 45.8334 6.04167 45.8334 8.33333V41.6667C45.8334 43.9583 43.9584 45.8333 41.6667 45.8333H8.33335C6.04169 45.8333 4.16669 43.9583 4.16669 41.6667V8.33333C4.16669 6.04167 6.04169 4.16667 8.33335 4.16667H41.6667Z" fill="#E8DDFF"/>
</svg>
