<svg width="25" height="25" viewBox="0 0 25 25" fill="none" xmlns="http://www.w3.org/2000/svg">
<path d="M12.5 8.33334C10.1979 8.33334 8.33335 10.1979 8.33335 12.5C8.33335 14.8021 10.1979 16.6667 12.5 16.6667C14.8021 16.6667 16.6667 14.8021 16.6667 12.5C16.6667 10.1979 14.8021 8.33334 12.5 8.33334ZM21.8125 11.4583C21.3334 7.11459 17.8854 3.66667 13.5417 3.18751V1.04167H11.4584V3.18751C7.1146 3.66667 3.66669 7.11459 3.18752 11.4583H1.04169V13.5417H3.18752C3.66669 17.8854 7.1146 21.3333 11.4584 21.8125V23.9583H13.5417V21.8125C17.8854 21.3333 21.3334 17.8854 21.8125 13.5417H23.9584V11.4583H21.8125ZM12.5 19.7917C8.46877 19.7917 5.20835 16.5313 5.20835 12.5C5.20835 8.46876 8.46877 5.20834 12.5 5.20834C16.5313 5.20834 19.7917 8.46876 19.7917 12.5C19.7917 16.5313 16.5313 19.7917 12.5 19.7917Z" fill="#583E83"/>
</svg>
