<svg width="45" height="45" viewBox="0 0 45 45" fill="none" xmlns="http://www.w3.org/2000/svg">
<path d="M22.5 3.75C15.2438 3.75 9.375 9.61875 9.375 16.875C9.375 26.7188 22.5 41.25 22.5 41.25C22.5 41.25 35.625 26.7188 35.625 16.875C35.625 9.61875 29.7563 3.75 22.5 3.75ZM13.125 16.875C13.125 11.7 17.325 7.5 22.5 7.5C27.675 7.5 31.875 11.7 31.875 16.875C31.875 22.275 26.475 30.3562 22.5 35.4C18.6 30.3937 13.125 22.2188 13.125 16.875Z" fill="#E8DDFF"/>
<path d="M22.5 21.5625C25.0888 21.5625 27.1875 19.4638 27.1875 16.875C27.1875 14.2862 25.0888 12.1875 22.5 12.1875C19.9112 12.1875 17.8125 14.2862 17.8125 16.875C17.8125 19.4638 19.9112 21.5625 22.5 21.5625Z" fill="#E8DDFF"/>
</svg>
