<svg width="60" height="60" viewBox="0 0 60 60" fill="none" xmlns="http://www.w3.org/2000/svg">
<path d="M27.0889 13.125C29.8503 13.125 32.0889 10.8864 32.0889 8.125C32.0889 5.36358 29.8503 3.125 27.0889 3.125C24.3274 3.125 22.0889 5.36358 22.0889 8.125C22.0889 10.8864 24.3274 13.125 27.0889 13.125Z" fill="#583E83"/>
<path d="M28.6639 17.175C28.2389 16.3 27.5639 15.55 26.6639 15.05C25.1389 14.15 23.3139 14.2 21.8389 14.975V14.95L10.8639 21.2C9.31387 22.075 8.33887 23.725 8.33887 25.525V31.875C8.33887 33.25 9.46387 34.375 10.8389 34.375C12.2139 34.375 13.3389 33.25 13.3389 31.875V25.525L17.0889 23.4C16.2889 26.15 15.8389 29 15.8389 31.875V45.2L10.8389 51.875C10.0139 52.975 10.2389 54.55 11.3389 55.375C12.4389 56.2 14.0139 55.975 14.8389 54.875L19.9389 48.075C20.5139 47.3 20.8639 46.35 20.9389 45.375L21.3889 38.025L25.8389 44.375V54.375C25.8389 55.75 26.9639 56.875 28.3389 56.875C29.7139 56.875 30.8389 55.75 30.8389 54.375V42.2C30.8389 41.175 30.5139 40.175 29.9389 39.325L25.9389 33.6C25.9389 33.6 25.9389 33.6 25.9389 33.575C25.6639 30.675 26.1139 27.775 27.0889 25.075C28.9639 27.925 31.7889 30.025 35.0889 31.1L49.3389 55.775C49.6889 56.375 50.4389 56.575 51.0389 56.225C51.6389 55.875 51.8389 55.125 51.4889 54.525L38.3639 31.875C39.7139 31.875 40.8139 30.775 40.8139 29.425V29.3C40.8139 28.05 39.8889 26.95 38.6389 26.825C36.2639 26.575 32.7139 25.525 30.6139 21.375" fill="#583E83"/>
</svg>
