<?xml version="1.0" encoding="UTF-8"?>
<svg version="1.1" xmlns="http://www.w3.org/2000/svg" width="295" height="51">
<path d="M0 0 C47.85 0 95.7 0 145 0 C145 16.83 145 33.66 145 51 C97.15 51 49.3 51 0 51 C0 34.17 0 17.34 0 0 Z " fill="#F3EFFD" transform="translate(75,0)"/>
<path d="M0 0 C1.65 0.99 3.3 1.98 5 3 C5.495 2.505 5.99 2.01 6.5 1.5 C9.96551164 -0.57930698 13.10918258 -0.6716292 17 0 C20.00697829 1.53547827 21.53577667 2.61886352 22.62890625 5.87109375 C23.26850961 9.43267458 23.18459484 11.54337067 21.8125 14.9375 C19.85737849 17.16229344 18.90215168 17.69977741 16 18 C16.66 19.65 17.32 21.3 18 23 C16.68 22.67 15.36 22.34 14 22 C14 21.34 14 20.68 14 20 C12.906875 19.54625 11.81375 19.0925 10.6875 18.625 C8.17862235 17.58357909 6.30282933 16.53521956 4 15 C3.67 16.65 3.34 18.3 3 20 C6.3 20.66 9.6 21.32 13 22 C13 22.33 13 22.66 13 23 C10.69 23.33 8.38 23.66 6 24 C5.34 26.31 4.68 28.62 4 31 C0.3849128 27.46943822 -2.99806281 23.80769471 -6.25 19.9375 C-6.69601563 19.42123047 -7.14203125 18.90496094 -7.6015625 18.37304688 C-9.86221928 15.6842354 -11.55801997 13.54433984 -12 10 C-10.56458334 8.70601853 -9.12658648 7.41489889 -7.6875 6.125 C-6.88699219 5.40570312 -6.08648437 4.68640625 -5.26171875 3.9453125 C-3 2 -3 2 0 0 Z " fill="#9A8AB7" transform="translate(95,8)"/>
<path d="M0 0 C2.32421875 0.99609375 2.32421875 0.99609375 3.625 2.70703125 C4.46171202 5.44621137 4.55415039 7.75888677 4.51171875 10.62109375 C4.50527344 11.58273438 4.49882813 12.544375 4.4921875 13.53515625 C4.32421875 15.99609375 4.32421875 15.99609375 3.32421875 17.99609375 C6.62421875 18.65609375 9.92421875 19.31609375 13.32421875 19.99609375 C13.32421875 20.32609375 13.32421875 20.65609375 13.32421875 20.99609375 C11.01421875 21.32609375 8.70421875 21.65609375 6.32421875 21.99609375 C5.66421875 24.30609375 5.00421875 26.61609375 4.32421875 28.99609375 C0.70913155 25.46553197 -2.67384406 21.80378846 -5.92578125 17.93359375 C-6.37179688 17.41732422 -6.8178125 16.90105469 -7.27734375 16.36914062 C-9.53800053 13.68032915 -11.23380122 11.54043359 -11.67578125 7.99609375 C-10.29762419 6.62394173 -8.89748974 5.27383608 -7.48828125 3.93359375 C-6.71097656 3.17949219 -5.93367188 2.42539063 -5.1328125 1.6484375 C-2.67578125 -0.00390625 -2.67578125 -0.00390625 0 0 Z " fill="#E3DCF0" transform="translate(94.67578125,10.00390625)"/>
<path d="M0 0 C0.7734375 0.433125 0.7734375 0.433125 1.5625 0.875 C4.146337 2.14974074 4.146337 2.14974074 7.6875 3 C8.780625 3.33 9.87375 3.66 11 4 C11.33 4.66 11.66 5.32 12 6 C13.32 7.32 14.64 8.64 16 10 C10.06 14.95 10.06 14.95 4 20 C2.68 19.34 1.36 18.68 0 18 C-0.28571429 10.57142857 -0.28571429 10.57142857 2 7 C1.01 6.34 0.02 5.68 -1 5 C-0.67 3.35 -0.34 1.7 0 0 Z " fill="#DCD5EB" transform="translate(99,23)"/>
<path d="M0 0 C2 1.625 2 1.625 3 4 C2.6875 7.25 2.6875 7.25 2 10 C1.34 10 0.68 10 0 10 C-0.33 10.99 -0.66 11.98 -1 13 C-7.75 12.25 -7.75 12.25 -10 10 C-10.54587156 3.99541284 -10.54587156 3.99541284 -8.9375 1.0625 C-5.84506242 -0.63335287 -3.44485259 -0.43060657 0 0 Z " fill="#EBE5F7" transform="translate(112,11)"/>
<path d="M0 0 C4.29 0.33 8.58 0.66 13 1 C15 7.75 15 7.75 15 10 C13.68 9.67 12.36 9.34 11 9 C11 7.02 11 5.04 11 3 C10.34 2.67 9.68 2.34 9 2 C9.33 4.64 9.66 7.28 10 10 C8.68 10 7.36 10 6 10 C6 7.36 6 4.72 6 2 C5.01 2 4.02 2 3 2 C3.33 4.64 3.66 7.28 4 10 C2.68 10 1.36 10 0 10 C0 6.7 0 3.4 0 0 Z " fill="#79639D" transform="translate(197,19)"/>
<path d="M0 0 C0.99 0 1.98 0 3 0 C3 1.32 3 2.64 3 4 C3.78375 3.95875 4.5675 3.9175 5.375 3.875 C8 4 8 4 10 6 C10.56520003 8.65537372 10.73788198 11.29144713 11 14 C9.68 13.67 8.36 13.34 7 13 C7 11.02 7 9.04 7 7 C6.01 6.67 5.02 6.34 4 6 C4 8.64 4 11.28 4 14 C2.68 13.67 1.36 13.34 0 13 C0 8.71 0 4.42 0 0 Z " fill="#5E4487" transform="translate(172,15)"/>
<path d="M0 0 C1.134375 0.020625 2.26875 0.04125 3.4375 0.0625 C3.1075 1.0525 2.7775 2.0425 2.4375 3.0625 C0.7875 2.7325 -0.8625 2.4025 -2.5625 2.0625 C-0.30509377 4.39774782 1.7180761 6.24955073 4.4375 8.0625 C3.5625 12.9375 3.5625 12.9375 2.4375 14.0625 C0.10452567 14.10342937 -2.22955225 14.10491723 -4.5625 14.0625 C-4.5625 13.0725 -4.5625 12.0825 -4.5625 11.0625 C-1.5925 11.5575 -1.5925 11.5575 1.4375 12.0625 C0.10417905 8.06253714 -2.0582827 7.22467663 -5.5625 5.0625 C-4.43693182 0.07784091 -4.43693182 0.07784091 0 0 Z " fill="#705A96" transform="translate(130.5625,14.9375)"/>
<path d="M0 0 C1.65 0.99 3.3 1.98 5 3 C5.495 2.505 5.99 2.01 6.5 1.5 C10.11630158 -0.66978095 12.82231616 -0.20888419 17 0 C17 0.99 17 1.98 17 3 C15.88625 3.12375 14.7725 3.2475 13.625 3.375 C9.96896323 3.6465813 9.96896323 3.6465813 8 6 C8 7.32 8 8.64 8 10 C6.125 9.8125 6.125 9.8125 4 9 C2.9375 6.625 2.9375 6.625 2 4 C0.47992158 2.22722741 0.47992158 2.22722741 -1 1 C-0.67 0.67 -0.34 0.34 0 0 Z " fill="#9382B2" transform="translate(95,8)"/>
<path d="M0 0 C0.99 0 1.98 0 3 0 C3 2.31 3 4.62 3 7 C3.5775 7.226875 4.155 7.45375 4.75 7.6875 C7.5663661 9.33038023 9.08077114 11.39533227 11 14 C9.68 14 8.36 14 7 14 C6.71125 13.360625 6.4225 12.72125 6.125 12.0625 C5.17176549 9.84793921 5.17176549 9.84793921 3 9 C3.33 10.65 3.66 12.3 4 14 C2.68 14 1.36 14 0 14 C0 9.38 0 4.76 0 0 Z " fill="#79639D" transform="translate(149,15)"/>
<path d="M0 0 C0.33 0.99 0.66 1.98 1 3 C0.67 3.66 0.34 4.32 0 5 C3.3 5.66 6.6 6.32 10 7 C10 7.33 10 7.66 10 8 C7.69 8.33 5.38 8.66 3 9 C2.34 11.31 1.68 13.62 1 16 C-0.32 15.01 -1.64 14.02 -3 13 C-2.67 12.34 -2.34 11.68 -2 11 C-1.67 11.33 -1.34 11.66 -1 12 C-1 10.02 -1 8.04 -1 6 C-3.475 5.01 -3.475 5.01 -6 4 C-5.01 3.67 -4.02 3.34 -3 3 C-2.34 3.33 -1.68 3.66 -1 4 C-0.67 2.68 -0.34 1.36 0 0 Z " fill="#A191BC" transform="translate(98,23)"/>
<path d="M0 0 C4.875 0.875 4.875 0.875 6 2 C6.14115161 4.67058851 6.04247107 7.32432238 6 10 C3.69 10 1.38 10 -1 10 C-1.33 8.35 -1.66 6.7 -2 5 C-1.34 6.32 -0.68 7.64 0 9 C0.99 9 1.98 9 3 9 C2.42655063 6.13275314 2.1385485 5.1385485 0 3 C0.99 3 1.98 3 3 3 C3 2.34 3 1.68 3 1 C1.68 1.33 0.36 1.66 -1 2 C-0.67 1.34 -0.34 0.68 0 0 Z " fill="#8976AA" transform="translate(140,19)"/>
<path d="M0 0 C0.7734375 0.433125 0.7734375 0.433125 1.5625 0.875 C4.62356725 2.28780027 7.74944918 3.1248517 11 4 C10.67 4.99 10.34 5.98 10 7 C8.741875 7.04125 7.48375 7.0825 6.1875 7.125 C5.47980469 7.14820313 4.77210937 7.17140625 4.04296875 7.1953125 C2 7 2 7 -1 5 C-0.67 3.35 -0.34 1.7 0 0 Z " fill="#ECE7F8" transform="translate(99,23)"/>
<path d="M0 0 C0.33 0.66 0.66 1.32 1 2 C1.66 2.33 2.32 2.66 3 3 C2.67 3.66 2.34 4.32 2 5 C1.34 5 0.68 5 0 5 C-0.33 5.99 -0.66 6.98 -1 8 C-3.31 7.67 -5.62 7.34 -8 7 C-6.71034824 5.62437146 -5.37310707 4.29233607 -4 3 C-3.34 3 -2.68 3 -2 3 C-2 2.34 -2 1.68 -2 1 C-1.34 0.67 -0.68 0.34 0 0 Z " fill="#F0ECFB" transform="translate(112,16)"/>
<path d="M0 0 C4.875 0.875 4.875 0.875 6 2 C6.14115161 4.67058851 6.04247107 7.32432238 6 10 C4.02 10 2.04 10 0 10 C0.99 9.67 1.98 9.34 3 9 C2.42655063 6.13275314 2.1385485 5.1385485 0 3 C0.99 3 1.98 3 3 3 C3 2.34 3 1.68 3 1 C1.68 1.33 0.36 1.66 -1 2 C-0.67 1.34 -0.34 0.68 0 0 Z " fill="#806CA2" transform="translate(188,19)"/>
<path d="M0 0 C3.53571429 0.53571429 3.53571429 0.53571429 5 2 C5.04063832 3.66617115 5.042721 5.33388095 5 7 C2.03 6.505 2.03 6.505 -1 6 C-1.625 4.125 -1.625 4.125 -2 2 C-1.34 1.34 -0.68 0.68 0 0 Z " fill="#B5A8CC" transform="translate(91,15)"/>
<path d="M0 0 C2.66666667 0 5.33333333 0 8 0 C8.33 1.32 8.66 2.64 9 4 C4.545 4.495 4.545 4.495 0 5 C0 3.35 0 1.7 0 0 Z " fill="#C5BBD9" transform="translate(130,32)"/>
<path d="M0 0 C0 2.66666667 0 5.33333333 0 8 C-1.65 8 -3.3 8 -5 8 C-4.74438677 5.6568787 -4.40729228 3.32156597 -4 1 C-2 0 -2 0 0 0 Z " fill="#CAC0DD" transform="translate(191,20)"/>
<path d="M0 0 C2.31 0 4.62 0 7 0 C7.33 1.32 7.66 2.64 8 4 C7.01 4.33 6.02 4.66 5 5 C5 4.34 5 3.68 5 3 C4.34 3 3.68 3 3 3 C2.67 3.66 2.34 4.32 2 5 C1.34 4.67 0.68 4.34 0 4 C0 2.68 0 1.36 0 0 Z " fill="#C8BEDB" transform="translate(163,32)"/>
<path d="M0 0 C0.33 0.66 0.66 1.32 1 2 C2.64363134 2.72159424 4.31050386 3.39351421 6 4 C6 5.65 6 7.3 6 9 C4.02 9 2.04 9 0 9 C-0.33 8.34 -0.66 7.68 -1 7 C1.475 7.495 1.475 7.495 4 8 C2.35 6.35 0.7 4.7 -1 3 C-0.67 2.01 -0.34 1.02 0 0 Z " fill="#79649D" transform="translate(163,20)"/>
<path d="M0 0 C2.375 -0.125 2.375 -0.125 5 0 C8.00617269 3.00617269 7.59585316 5.82381598 8 10 C6.68 9.67 5.36 9.34 4 9 C4 7.02 4 5.04 4 3 C2.68 2.67 1.36 2.34 0 2 C0 1.34 0 0.68 0 0 Z " fill="#6E5794" transform="translate(175,19)"/>
<path d="M0 0 C1.98 0 3.96 0 6 0 C5.67 1.65 5.34 3.3 5 5 C3.35 5 1.7 5 0 5 C0 3.35 0 1.7 0 0 Z " fill="#C7BCDA" transform="translate(172,32)"/>
<path d="M0 0 C3.03336186 -0.22893297 5.97465051 -0.36475845 9 0 C11.0625 2 11.0625 2 12 4 C11.67 4.66 11.34 5.32 11 6 C9.68 5.67 8.36 5.34 7 5 C7 3.68 7 2.36 7 1 C4.69 1 2.38 1 0 1 C0 0.67 0 0.34 0 0 Z " fill="#AA9BC4" transform="translate(105,9)"/>
<path d="M0 0 C0 2.66666667 0 5.33333333 0 8 C-0.99 8 -1.98 8 -3 8 C-3.66 6.35 -4.32 4.7 -5 3 C-2.25 0 -2.25 0 0 0 Z " fill="#E0DAEF" transform="translate(143,20)"/>
<path d="M0 0 C0.66 0 1.32 0 2 0 C2.66 4.62 3.32 9.24 4 14 C2.68 14 1.36 14 0 14 C0 9.38 0 4.76 0 0 Z " fill="#604789" transform="translate(149,15)"/>
<path d="M0 0 C0.99 0.33 1.98 0.66 3 1 C1.68 2.32 0.36 3.64 -1 5 C-0.34 6.98 0.32 8.96 1 11 C-0.65 9.35 -2.3 7.7 -4 6 C-2.84826645 3.53199953 -1.95216435 1.95216435 0 0 Z " fill="#AA9CC4" transform="translate(87,14)"/>
<path d="M0 0 C1.65 0.33 3.3 0.66 5 1 C5 3.64 5 6.28 5 9 C3.35 7.35 1.7 5.7 0 4 C0.99 3.67 1.98 3.34 3 3 C3 2.34 3 1.68 3 1 C1.68 1.33 0.36 1.66 -1 2 C-0.67 1.34 -0.34 0.68 0 0 Z " fill="#755F9A" transform="translate(140,19)"/>
<path d="M0 0 C0.99 0.33 1.98 0.66 3 1 C3.33 3.64 3.66 6.28 4 9 C2.68 8.67 1.36 8.34 0 8 C0 5.36 0 2.72 0 0 Z " fill="#674F8F" transform="translate(208,20)"/>
<path d="M0 0 C0.33 0.99 0.66 1.98 1 3 C-1.05233685 5.2477975 -2.00667261 6.0022242 -5 7 C-3.75023244 3.34683329 -3.32901247 2.21934164 0 0 Z " fill="#9381B1" transform="translate(110,14)"/>
<path d="M0 0 C0.33 0.99 0.66 1.98 1 3 C1.66 3 2.32 3 3 3 C3.33 2.01 3.66 1.02 4 0 C4.66 0.33 5.32 0.66 6 1 C6 1.99 6 2.98 6 4 C4.02 4.33 2.04 4.66 0 5 C0 3.35 0 1.7 0 0 Z " fill="#C6BBDA" transform="translate(145,32)"/>
<path d="M0 0 C1.32 0.33 2.64 0.66 4 1 C4 1.99 4 2.98 4 4 C2.68 4.33 1.36 4.66 0 5 C0 3.35 0 1.7 0 0 Z " fill="#C8BEDC" transform="translate(188,32)"/>
<path d="M0 0 C1.98 0 3.96 0 6 0 C5.34 1.32 4.68 2.64 4 4 C2.68 4 1.36 4 0 4 C0 2.68 0 1.36 0 0 Z " fill="#B7AACE" transform="translate(197,32)"/>
<path d="M0 0 C0.66 0 1.32 0 2 0 C2.33 2.31 2.66 4.62 3 7 C1.68 7 0.36 7 -1 7 C-0.67 4.69 -0.34 2.38 0 0 Z " fill="#5F4689" transform="translate(198,22)"/>
</svg>
