<?xml version="1.0" encoding="UTF-8"?>
<svg version="1.1" xmlns="http://www.w3.org/2000/svg" width="473" height="72">
<path d="M0 0 C67.65 0 135.3 0 205 0 C205 23.76 205 47.52 205 72 C137.35 72 69.7 72 0 72 C0 48.24 0 24.48 0 0 Z " fill="#F2EEFD" transform="translate(134,0)"/>
<path d="M0 0 C3.95018626 2.08689086 6.64836078 4.21311966 9 8 C9.79035703 12.36013629 9.99314784 16.96641156 8.015625 21.015625 C6.18248822 23.34665078 4.4661279 24.82362728 1.6875 25.875 C1.130625 25.91625 0.57375 25.9575 0 26 C0.680625 27.0828125 0.680625 27.0828125 1.375 28.1875 C2.85732001 30.75305386 3.9347033 33.24412376 5 36 C2.42978441 38.18262922 -0.15815593 40.34311938 -2.75 42.5 C-3.47960937 43.12003906 -4.20921875 43.74007812 -4.9609375 44.37890625 C-6.02441406 45.25869141 -6.02441406 45.25869141 -7.109375 46.15625 C-7.75874023 46.70087891 -8.40810547 47.24550781 -9.07714844 47.80664062 C-11 49 -11 49 -15 49 C-17.01783406 46.68739199 -18.75148141 44.44234387 -20.5 41.9375 C-21.5560793 40.47084242 -22.61474601 39.00604502 -23.67578125 37.54296875 C-24.21928223 36.79063965 -24.7627832 36.03831055 -25.32275391 35.26318359 C-28.47525584 31.00937094 -31.86025235 26.9375139 -35.25390625 22.87475586 C-37.76652163 19.80571501 -39.01904753 17.92380989 -40 14 C-34.39 9.71 -28.78 5.42 -23 1 C-19.76524552 2.61737724 -18.29427979 3.47629223 -16 6 C-15.05125 5.195625 -14.1025 4.39125 -13.125 3.5625 C-8.95737033 0.02907485 -5.4830716 -0.745371 0 0 Z " fill="#7D68A0" transform="translate(185,11)"/>
<path d="M0 0 C67.65 0 135.3 0 205 0 C205 23.76 205 47.52 205 72 C137.35 72 69.7 72 0 72 C0 48.24 0 24.48 0 0 Z M2.03593445 2.35066795 C0.42199979 4.92024575 0.60266959 7.15930401 0.58007812 10.16796875 C0.56416626 11.43938721 0.54825439 12.71080566 0.53186035 14.02075195 C0.53059326 15.40966741 0.53041612 16.79858422 0.53125 18.1875 C0.52414999 19.61092429 0.51645123 21.03434571 0.50817871 22.45776367 C0.49473128 25.44034789 0.4931665 28.42266739 0.49902344 31.40527344 C0.50492478 35.22913686 0.47431391 39.05173286 0.43390656 42.87535095 C0.40807033 45.81448214 0.40514822 48.7533063 0.40879822 51.6925354 C0.40710357 53.10237824 0.39742777 54.51223474 0.37965393 55.92196655 C0.35754799 57.89186482 0.37034756 59.86206171 0.38476562 61.83203125 C0.38271118 62.95327393 0.38065674 64.0745166 0.37854004 65.22973633 C0.72750663 68.13028499 0.72750663 68.13028499 3.04542542 69.64933205 C6.72143881 71.32980189 9.93324244 71.41711901 13.89465332 71.38095093 C14.68352322 71.3856309 15.47239312 71.39031087 16.28516817 71.39513266 C18.92530979 71.40708702 21.56493276 71.39762381 24.20507812 71.38818359 C26.09915978 71.3922491 27.99323906 71.39759086 29.88731384 71.40411377 C35.02981056 71.41779563 40.1721268 71.41248509 45.31462669 71.40297651 C50.69482283 71.39538446 56.07500346 71.40242427 61.4552002 71.40713501 C70.49050675 71.41259388 79.52573976 71.40539748 88.56103516 71.39111328 C99.00900876 71.37478654 109.45680675 71.38007495 119.9047761 71.3965925 C128.87304898 71.4102036 137.84126898 71.41212886 146.80954885 71.40427649 C152.1668495 71.39959792 157.52406757 71.39898022 162.88136292 71.40888596 C167.91780893 71.41754784 172.95402838 71.41154786 177.99044991 71.39420319 C179.8395659 71.39023419 181.68870094 71.39137943 183.53780937 71.39799118 C186.0605798 71.40618048 188.58262269 71.39591699 191.10534668 71.38095093 C191.83832489 71.38764309 192.57130311 71.39433526 193.32649279 71.40123022 C197.69419312 71.35091921 200.56730844 70.76795631 204 68 C204.74628234 65.15036916 204.74628234 65.15036916 204.61523438 61.83203125 C204.62453979 60.56061279 204.63384521 59.28919434 204.64343262 57.97924805 C204.62784625 56.59032075 204.61126125 55.20140436 204.59375 53.8125 C204.59203904 52.3890798 204.59210444 50.96565646 204.59387207 49.54223633 C204.59221832 46.5594263 204.57351224 43.5773674 204.54199219 40.59472656 C204.50231318 36.771095 204.49794624 32.94844742 204.50545502 29.12464905 C204.5085244 26.18549583 204.49640558 23.24656392 204.47932434 20.3074646 C204.47229231 18.89766834 204.46917006 17.48784699 204.47001648 16.07803345 C204.46821919 14.10794193 204.44457575 12.13790682 204.41992188 10.16796875 C204.40729309 8.48610474 204.40729309 8.48610474 204.39440918 6.77026367 C204.20229706 4.07355548 204.20229706 4.07355548 202.96406555 2.35066795 C199.91792032 0.25586478 196.74899134 0.5874497 193.18054199 0.61904907 C192.3756356 0.6143691 191.57072921 0.60968913 190.74143171 0.60486734 C188.03513751 0.59286875 185.32934515 0.60239342 182.62304688 0.61181641 C180.68660689 0.60775286 178.75016922 0.60241221 176.81373596 0.59588623 C171.54729365 0.582181 166.28102716 0.58752451 161.01458168 0.59702349 C155.51065207 0.60460349 150.0067378 0.5975791 144.50280762 0.59286499 C135.25884286 0.58740259 126.01494995 0.59461175 116.77099609 0.60888672 C106.07422552 0.62521413 95.37762646 0.61992597 84.68086004 0.6034075 C75.50714061 0.58980643 66.3334729 0.58786622 57.15974665 0.59572351 C51.67616621 0.60040762 46.19266648 0.60100465 40.70909119 0.59111404 C35.55448795 0.58246671 30.40010648 0.58842536 25.24552727 0.60579681 C23.35042121 0.60977362 21.45529658 0.60860731 19.56019783 0.60200882 C16.97969672 0.59385025 14.399913 0.60404552 11.81945801 0.61904907 C11.06372608 0.61235691 10.30799415 0.60566474 9.52936125 0.59876978 C5.54388732 0.63960005 5.54388732 0.63960005 2.03593445 2.35066795 Z " fill="#FEFEFF" transform="translate(134,0)"/>
<path d="M0 0 C3.84667969 1.71386719 3.84667969 1.71386719 5.2265625 4.2890625 C6.70186492 9.46007198 7.10846071 15.19993186 5.1015625 20.26953125 C4 22.1875 4 22.1875 2 25 C2.7425 25.5259375 2.7425 25.5259375 3.5 26.0625 C5.76982201 28.99435344 5.3264586 31.40895535 5 35 C4.34 35.66 3.68 36.32 3 37 C1.6578508 35.40320196 0.32652885 33.79729803 -1 32.1875 C-1.7425 31.29417969 -2.485 30.40085937 -3.25 29.48046875 C-5 27 -5 27 -5 24 C-5.99 23.67 -6.98 23.34 -8 23 C-9.82421875 21.0390625 -9.82421875 21.0390625 -11.6875 18.625 C-12.31011719 17.83351563 -12.93273437 17.04203125 -13.57421875 16.2265625 C-15 14 -15 14 -15 11 C-13.62304688 9.6496582 -13.62304688 9.6496582 -11.71875 8.30078125 C-11.04199219 7.81416016 -10.36523438 7.32753906 -9.66796875 6.82617188 C-8.95253906 6.32666016 -8.23710937 5.82714844 -7.5 5.3125 C-6.42685547 4.54583008 -6.42685547 4.54583008 -5.33203125 3.76367188 C-3.56075977 2.50016489 -1.78346291 1.24621052 0 0 Z " fill="#F1EDFC" transform="translate(162,14)"/>
<path d="M0 0 C0.50789062 0.34933594 1.01578125 0.69867188 1.5390625 1.05859375 C5.69405656 3.80524712 8.90884805 5.6181636 14 6 C14 6.99 14 7.98 14 9 C14.9590625 9.37125 14.9590625 9.37125 15.9375 9.75 C18 11 18 11 18.62890625 13.078125 C18.75136719 13.71234375 18.87382812 14.3465625 19 15 C16.76175998 16.87018719 14.51136473 18.72065432 12.25 20.5625 C11.29867187 21.36204102 11.29867187 21.36204102 10.328125 22.17773438 C9.4 22.92700195 9.4 22.92700195 8.453125 23.69140625 C7.88754883 24.15748291 7.32197266 24.62355957 6.73925781 25.10375977 C5 26 5 26 2.89453125 25.75097656 C0.22389788 24.69235952 -0.64427009 23.51839701 -2 21 C-2.109375 18.23828125 -2.109375 18.23828125 -1.75 15.3125 C-1.64171875 14.33925781 -1.5334375 13.36601563 -1.421875 12.36328125 C-1 10 -1 10 0 9 C-0.66 8.67 -1.32 8.34 -2 8 C-1.125 1.125 -1.125 1.125 0 0 Z " fill="#F0EBFB" transform="translate(169,32)"/>
<path d="M0 0 C1.3303125 0.433125 1.3303125 0.433125 2.6875 0.875 C2.6875 1.535 2.6875 2.195 2.6875 2.875 C3.3475 2.875 4.0075 2.875 4.6875 2.875 C4.6875 2.215 4.6875 1.555 4.6875 0.875 C8.06866794 2.06297793 10.42409434 3.06191011 12.6875 5.875 C13.43378905 8.96428956 13.35035237 11.77263359 12.6875 14.875 C9.68933637 18.45817116 7.74321856 19.64877459 3.1875 20.625 C-1.07406247 19.71180804 -2.66829149 18.35520625 -5.2890625 14.96484375 C-7.06155597 11.34543914 -6.25375112 8.70723668 -5.3125 4.875 C-7.29634711 8.84269422 -6.63880565 13.73029486 -5.3125 17.875 C-7.24240228 16.25819357 -8.21224697 15.31360701 -8.78125 12.82421875 C-8.83826768 8.69756415 -8.66545691 5.66318581 -6.1875 2.25 C-3.3125 -0.125 -3.3125 -0.125 0 0 Z " fill="#EDE8F8" transform="translate(177.3125,14.125)"/>
<path d="M0 0 C2.9389507 0.0868803 5.87481289 0.19373767 8.8125 0.3125 C9.64587891 0.33505859 10.47925781 0.35761719 11.33789062 0.38085938 C12.54155273 0.4340332 12.54155273 0.4340332 13.76953125 0.48828125 C14.87711792 0.52755737 14.87711792 0.52755737 16.00708008 0.56762695 C18.51912819 1.11262722 19.43289336 1.9934274 21 4 C21.68789637 7.33445952 21.77856974 10.58997394 22 14 C17.38 14 12.76 14 8 14 C8.33 13.01 8.66 12.02 9 11 C9.03954234 8.66700175 9.04401732 6.33291811 9 4 C7.68 3.34 6.36 2.68 5 2 C5.33 5.96 5.66 9.92 6 14 C4.02 14 2.04 14 0 14 C0.33 13.01 0.66 12.02 1 11 C1.15754704 9.04322445 1.15754704 9.04322445 1.125 7 C1.12757813 6.319375 1.13015625 5.63875 1.1328125 4.9375 C1.06631126 2.78125219 1.06631126 2.78125219 0 0 Z " fill="#674F8F" transform="translate(306,27)"/>
<path d="M0 0 C2.49830437 4.61225421 2.85777015 8.89707872 1.625 14 C-1.53586204 18.1003626 -5.26726837 19.70944744 -10.1875 21 C-13.375 21 -13.375 21 -16.375 19 C-15.78332031 18.97421875 -15.19164062 18.9484375 -14.58203125 18.921875 C-10.73793256 18.64595275 -7.77799908 18.18537957 -4.25 16.5625 C-1.64333624 13.00005953 -2.18191036 10.50178022 -2.6875 6.2421875 C-3.22593722 3.64229119 -3.22593722 3.64229119 -6.375 2 C-7.71290641 1.00612666 -9.04718122 0.0073108 -10.375 -1 C-10.375 -0.34 -10.375 0.32 -10.375 1 C-11.035 1 -11.695 1 -12.375 1 C-12.375 0.34 -12.375 -0.32 -12.375 -1 C-14.025 -0.67 -15.675 -0.34 -17.375 0 C-17.045 -0.99 -16.715 -1.98 -16.375 -3 C-9.25774021 -5.65389348 -5.90739105 -4.97464509 0 0 Z " fill="#9786B5" transform="translate(192.375,16)"/>
<path d="M0 0 C1.65 0 3.3 0 5 0 C5.33 3.3 5.66 6.6 6 10 C6.99 10 7.98 10 9 10 C9.226875 10.53625 9.45375 11.0725 9.6875 11.625 C11.43382056 14.78500863 13.6402849 17.2676983 16 20 C14.02 20 12.04 20 10 20 C9.731875 19.21625 9.46375 18.4325 9.1875 17.625 C8.15185568 14.71885077 8.15185568 14.71885077 5 13 C5.33 15.31 5.66 17.62 6 20 C4.02 20 2.04 20 0 20 C0 13.4 0 6.8 0 0 Z " fill="#745E99" transform="translate(238,21)"/>
<path d="M0 0 C2.78938267 -0.42913579 4.31400155 -0.48605104 6.6484375 1.16796875 C8.53811315 3.72940772 8.29843222 5.54442041 8.1875 8.6875 C8.16042969 9.68136719 8.13335937 10.67523438 8.10546875 11.69921875 C8.07066406 12.45847656 8.03585937 13.21773437 8 14 C6.741875 14.04125 5.48375 14.0825 4.1875 14.125 C3.47980469 14.14820313 2.77210938 14.17140625 2.04296875 14.1953125 C0 14 0 14 -3 12 C-3.3125 9 -3.3125 9 -3 6 C-1 4 -1 4 1.625 3.875 C2.40875 3.91625 3.1925 3.9575 4 4 C4 3.01 4 2.02 4 1 C2.02 1.66 0.04 2.32 -2 3 C-1.34 2.01 -0.68 1.02 0 0 Z " fill="#7B669F" transform="translate(294,27)"/>
<path d="M0 0 C1.21236328 0.02707031 1.21236328 0.02707031 2.44921875 0.0546875 C3.37154297 0.08949219 3.37154297 0.08949219 4.3125 0.125 C4.6425 1.445 4.9725 2.765 5.3125 4.125 C4.590625 3.795 3.86875 3.465 3.125 3.125 C0.29552573 2.11896471 -1.71645466 1.95522598 -4.6875 2.125 C-2.88057953 6.74158251 0.25492492 8.10974849 4.4140625 10.46484375 C6.3125 12.125 6.3125 12.125 6.6796875 14.703125 C6.3125 17.125 6.3125 17.125 4.8125 18.9375 C1.09820668 20.70178933 -1.58102076 20.45091105 -5.6875 20.125 C-6.6775 19.465 -7.6675 18.805 -8.6875 18.125 C-8.6875 17.135 -8.6875 16.145 -8.6875 15.125 C-8.1925 15.434375 -7.6975 15.74375 -7.1875 16.0625 C-3.70763219 17.54144382 -0.44721491 17.74902851 3.3125 18.125 C1.65169004 12.72280496 -1.03771847 11.38797019 -5.7890625 8.75 C-7.6875 7.125 -7.6875 7.125 -8.1484375 4.5625 C-7.99632812 3.758125 -7.84421875 2.95375 -7.6875 2.125 C-4.48369983 -0.01086678 -3.66810033 -0.10632175 0 0 Z " fill="#644C8C" transform="translate(212.6875,20.875)"/>
<path d="M0 0 C2.5625 0.3125 2.5625 0.3125 4.2109375 1.4765625 C6.09882761 4.0410375 5.86099149 5.85524119 5.75 9 C5.72292969 9.99386719 5.69585937 10.98773438 5.66796875 12.01171875 C5.63316406 12.77097656 5.59835938 13.53023437 5.5625 14.3125 C-1.82554781 14.67584661 -1.82554781 14.67584661 -4.4375 13.125 C-5.79583436 10.66301898 -5.86302252 9.07839638 -5.4375 6.3125 C-2.4375 4.3125 -2.4375 4.3125 1.5625 4.3125 C1.5625 3.6525 1.5625 2.9925 1.5625 2.3125 C0.5725 1.9825 -0.4175 1.6525 -1.4375 1.3125 C-1.4375 1.9725 -1.4375 2.6325 -1.4375 3.3125 C-2.4275 2.9825 -3.4175 2.6525 -4.4375 2.3125 C-2.4375 0.3125 -2.4375 0.3125 0 0 Z " fill="#644C8D" transform="translate(228.4375,26.6875)"/>
<path d="M0 0 C0.66 0.33 1.32 0.66 2 1 C2.36193496 4.07644715 2.48731247 6.93249623 2 10 C-1.12541032 13.73524648 -2.918923 14.8558564 -7.75 15.5 C-8.8225 15.335 -9.895 15.17 -11 15 C-11.66 14.01 -12.32 13.02 -13 12 C-12.45730469 11.62488281 -11.91460937 11.24976563 -11.35546875 10.86328125 C-7.2383848 7.91826805 -4.3581006 5.58519561 -2 1 C-1.34 0.67 -0.68 0.34 0 0 Z " fill="#EDE8F8" transform="translate(188,19)"/>
<path d="M0 0 C0.50789062 0.34933594 1.01578125 0.69867188 1.5390625 1.05859375 C5.69405656 3.80524712 8.90884805 5.6181636 14 6 C13.3125 8.4375 13.3125 8.4375 12 11 C8.71766248 12.20928224 6.25531917 12.22074469 3 11 C1.31008021 10.0398183 -0.36209288 9.04644066 -2 8 C-1.125 1.125 -1.125 1.125 0 0 Z " fill="#E5DFF2" transform="translate(169,32)"/>
<path d="M0 0 C4.5006402 -0.36491677 4.5006402 -0.36491677 6.625 1.1875 C8.418395 3.55152068 8.49663678 5.24820634 8.6875 8.1875 C8.78611328 9.53908203 8.78611328 9.53908203 8.88671875 10.91796875 C8.92410156 11.60503906 8.96148437 12.29210938 9 13 C6.36 13 3.72 13 1 13 C0.63631108 11.39796533 0.28438048 9.79325797 -0.0625 8.1875 C-0.25972656 7.29417969 -0.45695312 6.40085937 -0.66015625 5.48046875 C-1 3 -1 3 0 0 Z " fill="#E6E0F3" transform="translate(319,28)"/>
<path d="M0 0 C2.5 0.1875 2.5 0.1875 5 1 C7.4294516 4.6441774 7.16179575 6.71241272 7 11 C3.49588735 10.6814443 1.4159895 10.30932553 -1.4375 8.1875 C-3 6 -3 6 -2.875 3.875 C-2 2 -2 2 0 0 Z " fill="#8A77AA" transform="translate(157,21)"/>
<path d="M0 0 C3.01799494 0.33533277 4.80881813 0.86565598 7.3125 2.625 C9.62596319 5.88098522 9.43379255 8.09586703 9 12 C8.34 12.66 7.68 13.32 7 14 C5.63059432 12.42982807 4.27987105 10.84334609 2.9375 9.25 C2.18339844 8.36828125 1.42929688 7.4865625 0.65234375 6.578125 C-1 4 -1 4 -0.74609375 1.671875 C-0.49988281 1.12015625 -0.25367188 0.5684375 0 0 Z " fill="#E6E0F3" transform="translate(158,37)"/>
<path d="M0 0 C1.65 0 3.3 0 5 0 C6.03026944 6.69675136 6.10152799 13.2314676 6 20 C4.02 20 2.04 20 0 20 C0.495 18.515 0.495 18.515 1 17 C1.09528823 14.66824086 1.12986188 12.33370026 1.125 10 C1.12757813 8.7625 1.13015625 7.525 1.1328125 6.25 C1.14991302 2.98769227 1.14991302 2.98769227 0 0 Z " fill="#654D8D" transform="translate(271,21)"/>
<path d="M0 0 C0.66 0 1.32 0 2 0 C2 0.99 2 1.98 2 3 C2.78375 3.28875 3.5675 3.5775 4.375 3.875 C7 5 7 5 9 7 C9.1875 9.5625 9.1875 9.5625 9 12 C8 13 8 13 4.5625 13.125 C1 13 1 13 -1 12 C-1 11.34 -1 10.68 -1 10 C1.31 10.33 3.62 10.66 6 11 C6 10.34 6 9.68 6 9 C4.44144019 7.64287834 4.44144019 7.64287834 2.5 6.375 C1.8503125 5.92898437 1.200625 5.48296875 0.53125 5.0234375 C0.0259375 4.68570313 -0.479375 4.34796875 -1 4 C-0.67 2.68 -0.34 1.36 0 0 Z " fill="#6E5794" transform="translate(258,28)"/>
<path d="M0 0 C3.04838235 -0.33870915 4.60426893 -0.24183566 7.25 1.375 C9.8764331 5.31464965 9.82265444 9.35354645 10 14 C8.02 14 6.04 14 4 14 C4.10699219 13.38511719 4.21398437 12.77023438 4.32421875 12.13671875 C4.44410156 11.32847656 4.56398438 10.52023438 4.6875 9.6875 C4.81511719 8.88699219 4.94273437 8.08648437 5.07421875 7.26171875 C5.22610908 4.93467407 5.22610908 4.93467407 3.64453125 3.33203125 C3.10183594 2.89246094 2.55914062 2.45289063 2 2 C1.34 1.34 0.68 0.68 0 0 Z " fill="#674F8E" transform="translate(277,27)"/>
<path d="M0 0 C2.58926331 2.58926331 2.37398043 4.02705279 2.625 7.625 C2.69976562 8.62789062 2.77453125 9.63078125 2.8515625 10.6640625 C2.92503906 11.82035156 2.92503906 11.82035156 3 13 C2.67 13 2.34 13 2 13 C1.82984375 12.38511719 1.6596875 11.77023438 1.484375 11.13671875 C0.04724763 6.25626785 0.04724763 6.25626785 -2.625 2 C-6.29495283 0.4547567 -10.05188551 0.24464812 -14 0 C-9.48438245 -4.51561755 -4.97749668 -3.05437296 0 0 Z " fill="#B8ACCF" transform="translate(190,14)"/>
<path d="M0 0 C1.6396875 0.2475 1.6396875 0.2475 3.3125 0.5 C6.87525873 1.06718184 6.87525873 1.06718184 10 1 C10 2.65 10 4.3 10 6 C9.34 6 8.68 6 8 6 C7.67 5.34 7.34 4.68 7 4 C6.67 4.66 6.34 5.32 6 6 C3.5 6.6875 3.5 6.6875 1 7 C0 6 0 6 -0.0625 2.9375 C-0.041875 1.968125 -0.02125 0.99875 0 0 Z " fill="#C1B6D6" transform="translate(301,45)"/>
<path d="M0 0 C1.6396875 0.2475 1.6396875 0.2475 3.3125 0.5 C6.87525873 1.06718184 6.87525873 1.06718184 10 1 C10 2.65 10 4.3 10 6 C9.34 6 8.68 6 8 6 C7.67 5.34 7.34 4.68 7 4 C6.67 4.66 6.34 5.32 6 6 C3.5 6.6875 3.5 6.6875 1 7 C0 6 0 6 -0.0625 2.9375 C-0.041875 1.968125 -0.02125 0.99875 0 0 Z " fill="#C3B8D7" transform="translate(282,45)"/>
<path d="M0 0 C4.5006402 -0.36491677 4.5006402 -0.36491677 6.625 1.1875 C8.418395 3.55152068 8.49663678 5.24820634 8.6875 8.1875 C8.78611328 9.53908203 8.78611328 9.53908203 8.88671875 10.91796875 C8.92410156 11.60503906 8.96148437 12.29210938 9 13 C7.02 13 5.04 13 3 13 C3.33 12.01 3.66 11.02 4 10 C4.41666667 6.5 4.41666667 6.5 4 3 C2.13875077 1.01760473 2.13875077 1.01760473 0 0 Z " fill="#644C8C" transform="translate(319,28)"/>
<path d="M0 0 C3.69230769 0.69230769 3.69230769 0.69230769 5 2 C5.04063832 3.66617115 5.042721 5.33388095 5 7 C3.125 7.625 3.125 7.625 1 8 C-1 6 -1 6 -1.1875 3.4375 C-1 1 -1 1 0 0 Z " fill="#E6E0F3" transform="translate(294,32)"/>
<path d="M0 0 C3.875 0.875 3.875 0.875 5 2 C5.04063832 3.66617115 5.042721 5.33388095 5 7 C3.68 7.33 2.36 7.66 1 8 C-1 5 -1 5 -0.625 2.3125 C-0.41875 1.549375 -0.2125 0.78625 0 0 Z " fill="#E8E3F5" transform="translate(226,32)"/>
<path d="M0 0 C2.5 -0.3125 2.5 -0.3125 5 0 C7 2 7 2 7.1953125 4.6015625 C7.17210937 5.59929688 7.14890625 6.59703125 7.125 7.625 C7.10695313 8.62789062 7.08890625 9.63078125 7.0703125 10.6640625 C7.03550781 11.82035156 7.03550781 11.82035156 7 13 C6.01 12.67 5.02 12.34 4 12 C4.0309375 10.824375 4.0309375 10.824375 4.0625 9.625 C4.18684063 7.01885039 4.18684063 7.01885039 3 5 C3.66 5 4.32 5 5 5 C4.67 4.01 4.34 3.02 4 2 C2.02 2.33 0.04 2.66 -2 3 C-1.34 2.01 -0.68 1.02 0 0 Z " fill="#5E4588" transform="translate(294,27)"/>
<path d="M0 0 C0.33 0.99 0.66 1.98 1 3 C-4.14285714 8.57142857 -4.14285714 8.57142857 -8 9 C-6.06273348 4.41173718 -4.51135667 2.19471406 0 0 Z " fill="#79649D" transform="translate(184,20)"/>
<path d="M0 0 C1.65 0.33 3.3 0.66 5 1 C5 2.98 5 4.96 5 7 C2.83125748 6.49396008 1.00032373 6.00016187 -1 5 C-0.67 3.35 -0.34 1.7 0 0 Z " fill="#EEE9F9" transform="translate(157,23)"/>
<path d="M0 0 C2.0625 0.4375 2.0625 0.4375 4 1 C4 2.65 4 4.3 4 6 C3.01 6.33 2.02 6.66 1 7 C0.01 6.34 -0.98 5.68 -2 5 C-1.125 1.125 -1.125 1.125 0 0 Z " fill="#C4B9D8" transform="translate(245,45)"/>
<path d="M0 0 C0.66 0.33 1.32 0.66 2 1 C2 2.32 2 3.64 2 5 C0.68 5 -0.64 5 -2 5 C-3.98384711 8.96769422 -3.32630565 13.85529486 -2 18 C-3.92990228 16.38319357 -4.89974697 15.43860701 -5.46875 12.94921875 C-5.52875902 8.60606558 -5.35855114 5.84827125 -2.5 2.4375 C-1.675 1.633125 -0.85 0.82875 0 0 Z " fill="#C8BDDB" transform="translate(174,14)"/>
<path d="M0 0 C1.98 0.66 3.96 1.32 6 2 C5.3125 3.9375 5.3125 3.9375 4 6 C1.375 6.75 1.375 6.75 -1 7 C-0.67 4.69 -0.34 2.38 0 0 Z " fill="#C4B9D8" transform="translate(255,45)"/>
<path d="M0 0 C1.21236328 0.02707031 1.21236328 0.02707031 2.44921875 0.0546875 C3.37154297 0.08949219 3.37154297 0.08949219 4.3125 0.125 C4.6425 1.445 4.9725 2.765 5.3125 4.125 C4.590625 3.795 3.86875 3.465 3.125 3.125 C0.29552573 2.11896471 -1.71645466 1.95522598 -4.6875 2.125 C-5.0175 3.115 -5.3475 4.105 -5.6875 5.125 C-6.3475 5.125 -7.0075 5.125 -7.6875 5.125 C-7.6875 4.135 -7.6875 3.145 -7.6875 2.125 C-4.48369983 -0.01086678 -3.66810033 -0.10632175 0 0 Z " fill="#78629C" transform="translate(212.6875,20.875)"/>
<path d="M0 0 C1.32 0.33 2.64 0.66 4 1 C4.33 2.32 4.66 3.64 5 5 C3.35 5.66 1.7 6.32 0 7 C0 4.69 0 2.38 0 0 Z " fill="#BFB3D4" transform="translate(265,45)"/>
<path d="M0 0 C0.66 0.33 1.32 0.66 2 1 C2.625 4.0625 2.625 4.0625 3 7 C5.31 7.33 7.62 7.66 10 8 C10 8.33 10 8.66 10 9 C2.61195219 9.36334661 2.61195219 9.36334661 0 7.8125 C-1.32477191 5.41135091 -1.28417861 3.69969684 -1 1 C-0.67 0.67 -0.34 0.34 0 0 Z " fill="#77619B" transform="translate(224,32)"/>
<path d="M0 0 C1.485 0.99 1.485 0.99 3 2 C3.33 1.34 3.66 0.68 4 0 C4.66 0 5.32 0 6 0 C6 1.65 6 3.3 6 5 C4.02 5 2.04 5 0 5 C0 3.35 0 1.7 0 0 Z " fill="#A99AC3" transform="translate(212,46)"/>
<path d="M0 0 C0.804375 0.4640625 0.804375 0.4640625 1.625 0.9375 C4.3984957 2.17827439 7.00042837 2.5909675 10 3 C7 5 7 5 3.8125 4.625 C2.884375 4.41875 1.95625 4.2125 1 4 C0.67 2.68 0.34 1.36 0 0 Z " fill="#8572A7" transform="translate(204,36)"/>
<path d="M0 0 C0.33 0.99 0.66 1.98 1 3 C0.01 4.485 0.01 4.485 -1 6 C-2.32 5.67 -3.64 5.34 -5 5 C-3.35 3.35 -1.7 1.7 0 0 Z " fill="#9A8AB7" transform="translate(184,20)"/>
</svg>
