<?xml version="1.0" encoding="UTF-8"?>
<svg version="1.1" xmlns="http://www.w3.org/2000/svg" width="986" height="346">
<path d="M0 0 C325.38 0 650.76 0 986 0 C986 114.18 986 228.36 986 346 C660.62 346 335.24 346 0 346 C0 231.82 0 117.64 0 0 Z " fill="#F5F1FE" transform="translate(0,0)"/>
<path d="M0 0 C13.06331358 10.24070476 22.5667168 25.21865859 25.1875 41.71484375 C26.21199061 53.65327247 26.13614168 65.63931237 21.1875 76.71484375 C20.713125 77.78734375 20.23875 78.85984375 19.75 79.96484375 C12.3886549 94.9706626 -0.14535559 107.26614808 -15.875 113.27734375 C-19.20444782 114.40384865 -21.21015954 114.71484375 -24.8125 114.71484375 C-17.74302901 124.06366955 -10.60803535 133.33354782 -3.12817383 142.359375 C5.20914956 152.47901463 5.20914956 152.47901463 5.140625 156.390625 C4.06686114 159.00902459 3.11882199 160.11970876 0.9375 161.90234375 C-0.15691406 162.80339844 -0.15691406 162.80339844 -1.2734375 163.72265625 C-5.18259257 166.78983946 -9.10557705 169.83721753 -13.05859375 172.84765625 C-17.31079423 176.08797251 -21.53119476 179.36872629 -25.75 182.65234375 C-26.52134277 183.25248291 -27.29268555 183.85262207 -28.08740234 184.47094727 C-33.23134181 188.47618931 -38.36192523 192.49802637 -43.48413086 196.53100586 C-49.00745193 200.8763562 -54.55216449 205.19421914 -60.11206055 209.49267578 C-63.74239876 212.30358701 -67.34720022 215.13557056 -70.89453125 218.05078125 C-71.84295898 218.82228516 -71.84295898 218.82228516 -72.81054688 219.609375 C-73.98550101 220.56805663 -75.15276538 221.53627333 -76.31054688 222.515625 C-78.65999178 224.42183308 -80.49612492 225.64608676 -83.47265625 226.29296875 C-86.81432921 225.46731333 -87.56966247 223.94508438 -89.4375 221.08984375 C-90.12457031 220.08308594 -90.81164062 219.07632813 -91.51953125 218.0390625 C-91.88771973 217.49685059 -92.2559082 216.95463867 -92.63525391 216.39599609 C-94.68161009 213.47372138 -96.90569716 210.69418055 -99.125 207.90234375 C-100.06512568 206.71355868 -101.0052296 205.5247564 -101.9453125 204.3359375 C-102.65349121 203.44237549 -102.65349121 203.44237549 -103.37597656 202.53076172 C-105.76047562 199.51650204 -108.12884992 196.4896065 -110.5 193.46484375 C-113.55666366 189.56751762 -116.63386861 185.68993998 -119.75 181.83984375 C-123.10588593 177.66544906 -126.30653564 173.38842162 -129.5 169.08984375 C-134.77841022 161.99207737 -140.29616891 155.117609 -145.90234375 148.27734375 C-149.28465091 144.14978247 -152.56222055 139.94680658 -155.8125 135.71484375 C-156.97825349 134.21413394 -158.14494333 132.7141511 -159.3125 131.21484375 C-159.89644531 130.46332031 -160.48039062 129.71179688 -161.08203125 128.9375 C-162.18067821 127.52637107 -163.28193891 126.11727015 -164.38671875 124.7109375 C-167.12120064 121.22165916 -169.82231507 117.71178231 -172.46484375 114.15234375 C-178.74951318 105.69067325 -185.22095954 97.42928156 -191.90234375 89.27734375 C-194.74707002 85.80581339 -197.52551139 82.28821727 -200.26171875 78.73046875 C-201.38079529 77.27595113 -202.50963764 75.82892897 -203.64453125 74.38671875 C-205.38387411 72.17500699 -207.10410808 69.95051713 -208.8125 67.71484375 C-209.48732422 66.84472656 -209.48732422 66.84472656 -210.17578125 65.95703125 C-212.83752011 62.31657741 -212.83752011 62.31657741 -212.734375 59.8359375 C-211.36998041 56.69667367 -209.21844261 55.22433166 -206.5625 53.08984375 C-206.02383301 52.65381836 -205.48516602 52.21779297 -204.93017578 51.76855469 C-200.15646999 47.92694361 -195.29904482 44.19064826 -190.42578125 40.4765625 C-186.22128036 37.27037981 -182.0477578 34.02467387 -177.875 30.77734375 C-177.10333496 30.17696289 -176.33166992 29.57658203 -175.53662109 28.95800781 C-170.39592326 24.95522768 -165.26817614 20.93635994 -160.1496582 16.90527344 C-156.87351429 14.32735505 -153.58897111 11.7606497 -150.296875 9.203125 C-149.51723389 8.59742676 -148.73759277 7.99172852 -147.93432617 7.36767578 C-146.36794838 6.15230205 -144.80042366 4.93840489 -143.23168945 3.72607422 C-139.98662254 1.21292718 -136.75545909 -1.30253992 -133.62109375 -3.953125 C-132.75613281 -4.68144531 -131.89117187 -5.40976562 -131 -6.16015625 C-130.29230469 -6.77632812 -129.58460938 -7.3925 -128.85546875 -8.02734375 C-126.8125 -9.28515625 -126.8125 -9.28515625 -124.43359375 -9.921875 C-120.14046552 -8.87898394 -118.28040859 -5.63661999 -115.6875 -2.22265625 C-115.12780518 -1.50980469 -114.56811035 -0.79695313 -113.99145508 -0.0625 C-108.43090241 7.07007624 -103.08174925 14.36534981 -97.8125 21.71484375 C-95.91296717 19.36304119 -94.03052207 17.01204797 -92.2421875 14.57421875 C-81.93342051 0.58744946 -69.2386559 -7.51638542 -52.5546875 -11.875 C-33.79196709 -14.68138981 -15.58535682 -10.93758077 0 0 Z " fill="#5E4588" transform="translate(264.8125,65.28515625)"/>
<path d="M0 0 C3.08594534 1.33455191 4.77005288 2.62572763 6.734375 5.34375 C7.46648193 6.34088013 7.46648193 6.34088013 8.21337891 7.3581543 C8.72046387 8.06496338 9.22754883 8.77177246 9.75 9.5 C10.81365603 10.95548647 11.87876175 12.40991464 12.9453125 13.86328125 C13.46383789 14.57178223 13.98236328 15.2802832 14.51660156 16.01025391 C17.04640962 19.40359421 19.75128164 22.64972903 22.4765625 25.88671875 C24.18699698 28.25939838 25.22963488 30.17104808 26 33 C25.5390625 35.6640625 25.5390625 35.6640625 24.625 38.625 C21.454716 51.26329432 21.66830005 63.74398915 26.39648438 75.92504883 C28.14706356 80.52395612 28.14706356 80.52395612 27.32421875 83.1875 C26.88722656 83.785625 26.45023437 84.38375 26 85 C25.56042969 85.65097656 25.12085938 86.30195313 24.66796875 86.97265625 C23.93513672 88.00712891 23.93513672 88.00712891 23.1875 89.0625 C15.85314377 100.14473019 13.96075371 109.96529666 13 123 C9.7 122.34 6.4 121.68 3 121 C3 122.32 3 123.64 3 125 C3.81984375 125.29390625 4.6396875 125.5878125 5.484375 125.890625 C14.14015652 129.49374936 14.14015652 129.49374936 16.65234375 133.89453125 C17.64293492 136.92611403 18.40562933 139.86796165 19 143 C19.18691406 143.76183594 19.37382812 144.52367187 19.56640625 145.30859375 C21.34479607 156.34742788 21.92275636 172.80151685 15.39453125 182.34765625 C14.93433594 182.89292969 14.47414063 183.43820313 14 184 C7.50243494 176.11908238 1.07716789 168.21147824 -5 160 C-9.14007818 154.40844777 -13.40785471 148.9482748 -17.8125 143.5625 C-18.35865967 142.89460449 -18.90481934 142.22670898 -19.4675293 141.53857422 C-20.50675886 140.26884663 -21.54621692 138.99930601 -22.5859375 137.72998047 C-24.51127845 135.37449601 -26.42133603 133.00801911 -28.3125 130.625 C-28.84488281 129.95726562 -29.37726563 129.28953125 -29.92578125 128.6015625 C-31 127 -31 127 -31 125 C-30.01 124.34 -29.02 123.68 -28 123 C-28.33 121.68 -28.66 120.36 -29 119 C-30.03898437 119.29648438 -31.07796875 119.59296875 -32.1484375 119.8984375 C-36 120 -36 120 -38.8515625 117.4140625 C-39.80084105 116.16957321 -40.72379716 114.9047331 -41.625 113.625 C-42.13224609 112.94888672 -42.63949219 112.27277344 -43.16210938 111.57617188 C-44.24205959 110.13403517 -45.31180115 108.6842065 -46.37207031 107.22753906 C-48.49366013 104.32451184 -50.68006574 101.47409229 -52.87011719 98.62255859 C-53.95985329 97.20342054 -55.04642897 95.78185024 -56.12988281 94.35791016 C-60.76170252 88.27152679 -65.52531038 82.29793377 -70.3203125 76.33984375 C-73.59757004 72.2658856 -76.81106182 68.1433739 -80 64 C-76.08356295 59.92539915 -71.90209639 56.35161639 -67.5 52.8125 C-66.43724854 51.95386353 -66.43724854 51.95386353 -65.35302734 51.07788086 C-59.57078627 46.4225987 -53.70574684 41.88603764 -47.8046875 37.38232422 C-37.90174065 29.79703133 -28.08592286 22.10218196 -18.36547852 14.28466797 C-12.31578563 9.42878773 -6.16934287 4.70243335 0 0 Z " fill="#F3EFFD" transform="translate(139,63)"/>
<path d="M0 0 C1.9375 0.75 1.9375 0.75 4 2 C4.75 4.125 4.75 4.125 5 6 C5.66 6 6.32 6 7 6 C8.40234375 7.4609375 8.40234375 7.4609375 9.9375 9.375 C11.91986617 11.83901524 13.30699655 13.20466437 16 15 C16 15.66 16 16.32 16 17 C17.10021484 17.40605469 17.10021484 17.40605469 18.22265625 17.8203125 C20.88770575 18.95230258 23.03748348 20.26944302 25.4375 21.875 C35.85099959 28.12921635 46.23012754 29.62459325 58.15966797 29.14575195 C60.66868356 29.14054241 62.61670044 29.20312125 65 30 C67.24602703 32.41969224 68.6702382 34.99195184 70 38 C69.43410156 38.37511719 68.86820312 38.75023437 68.28515625 39.13671875 C63.64227149 42.19363427 63.64227149 42.19363427 61 46.875 C61 47.57625 61 48.2775 61 49 C65.63207493 47.67655002 69.03616642 45.70261381 73 43 C73.66 43 74.32 43 75 43 C76.78812073 45.08915116 78.46634363 47.186382 80.125 49.375 C81.11264078 50.66064852 82.10092712 51.94580135 83.08984375 53.23046875 C83.57952637 53.86903809 84.06920898 54.50760742 84.57373047 55.16552734 C87.17791056 58.51503252 89.91062487 61.76116593 92.63671875 65.01171875 C94 67 94 67 94 70 C92.12109375 71.62109375 92.12109375 71.62109375 89.4375 73.4375 C84.68856107 76.75992839 80.13024167 80.2294178 75.625 83.875 C70.50091723 88.00688808 65.34232251 92.07843396 60.11450195 96.07861328 C55.49628731 99.61333709 50.90171447 103.17771653 46.3125 106.75 C45.1831604 107.62833496 45.1831604 107.62833496 44.03100586 108.52441406 C40.03560978 111.63283644 36.04454095 114.74665696 32.05859375 117.8671875 C31.25317139 118.49657227 30.44774902 119.12595703 29.61791992 119.77441406 C28.08154754 120.97512575 26.54647389 122.17750178 25.01293945 123.38183594 C21.10609346 126.43252852 17.16663501 129.31396171 13 132 C6.88076787 124.77409823 0.95973325 117.44544744 -4.7734375 109.91015625 C-6.93994603 106.98951747 -6.93994603 106.98951747 -9.3515625 104.43359375 C-11 102 -11 102 -10.91015625 99.62109375 C-10.23192317 97.66789892 -9.52708455 95.72390356 -8.80859375 93.78515625 C-2.55830996 76.81501252 -3.75963044 60.06120318 -9 43 C-12.81671866 29.64148468 -11.76205014 18.25720564 -5 6 C-3.44843061 3.73077966 -1.94842017 1.94842017 0 0 Z " fill="#F3EFFE" transform="translate(169,152)"/>
<path d="M0 0 C0.495 3.96 0.495 3.96 1 8 C2.32 8 3.64 8 5 8 C5.33 5.36 5.66 2.72 6 0 C16.30902888 1.48951748 25.2963835 3.701837 33 11 C32.42437172 14.33864404 31.40936384 15.69102632 29 18 C28.505 19.485 28.505 19.485 28 21 C30.33165034 21.33498301 30.33165034 21.33498301 33 21 C35.31377147 19.10415891 35.31377147 19.10415891 37 17 C42.14283718 18.89238597 43.41947381 22.90337214 45.671875 27.6015625 C47.63771288 32.63179473 48.44958255 37.64766475 49 43 C46.03 43 43.06 43 40 43 C40.495 45.475 40.495 45.475 41 48 C43.64 48.33 46.28 48.66 49 49 C49.93113762 57.613023 45.20969832 67.4826468 40.3125 74.375 C39.879375 74.91125 39.44625 75.4475 39 76 C38.443125 75.690625 37.88625 75.38125 37.3125 75.0625 C34.87459567 73.94238179 32.63775814 73.43962636 30 73 C30.56054661 76.36327963 31.41841038 78.99112219 33 82 C24.56179057 88.11464452 16.48737583 92.22315735 6 93 C5.505 89.535 5.505 89.535 5 86 C3.68 85.67 2.36 85.34 1 85 C0.67 87.64 0.34 90.28 0 93 C-10.03035476 93 -17.40178439 88.68314721 -26 84 C-26 80 -26 80 -24 78 C-24 76.68 -24 75.36 -24 74 C-26.86724686 74.57344937 -27.8614515 74.8614515 -30 77 C-31.90234375 76.92578125 -31.90234375 76.92578125 -34 76 C-40.59713044 68.4381279 -44 58.98382631 -44 49 C-40.535 48.505 -40.535 48.505 -37 48 C-36.67 46.68 -36.34 45.36 -36 44 C-39.96 43.505 -39.96 43.505 -44 43 C-43.14172639 33.5589903 -40.80635796 24.03933843 -34 17 C-32.68 17 -31.36 17 -30 17 C-29.505 17.515625 -29.01 18.03125 -28.5 18.5625 C-28.005 19.036875 -27.51 19.51125 -27 20 C-24.83700789 19.77242269 -24.83700789 19.77242269 -23 19 C-24.19976433 15.91489173 -25.50002556 12.94952958 -27 10 C-18.4095575 3.85544738 -10.80292259 0 0 0 Z " fill="#F3EEFD" transform="translate(223,71)"/>
<path d="M0 0 C7.59 0 15.18 0 23 0 C23 2.31 23 4.62 23 7 C24.216875 6.505 25.43375 6.01 26.6875 5.5 C33.31280575 3.31594811 40.81705432 2.5513043 47.50390625 4.8671875 C49.38655259 5.81717847 51.2006392 6.90039062 53 8 C56.88936964 9.29645655 57.71754338 8.357546 61.3125 6.5625 C69.65600979 2.94630568 78.47906147 2.24580576 87.0625 5.625 C93.53727484 9.04858224 96.51724204 14.17241562 99 21 C99.81456311 24.43533137 100.13058903 27.64199987 100.17578125 31.16796875 C100.21155273 32.63266602 100.21155273 32.63266602 100.24804688 34.12695312 C100.29059996 36.14758005 100.3220736 38.16847442 100.34179688 40.18945312 C100.55537391 47.76398755 101.75969001 54.97055132 106.6340332 61.03198242 C108 63 108 63 108 67 C98.1 67 88.2 67 78 67 C78 61.42776204 78 61.42776204 80.4375 58.5 C85.52824461 52.35049653 84.28973421 43.74902512 84.375 36.1875 C84.41238281 34.94162109 84.44976563 33.69574219 84.48828125 32.41210938 C84.55944841 24.95932627 84.08607505 19.68477545 79 14 C75.23966764 10.56198184 71.29882596 10.44510266 66.3828125 10.5625 C62.59236026 11.25845189 61.26759638 12.97653816 59 16 C59.21293701 16.66136963 59.42587402 17.32273926 59.64526367 18.00415039 C61.73846598 24.97394503 62.3173772 31.19607118 62.3125 38.4375 C62.46673714 46.71710934 63.13784697 52.59784449 67.625 59.6953125 C69 62 69 62 70 67 C60.1 67 50.2 67 40 67 C40 61.44762809 40.87267175 60.3230714 44 56 C46.20144935 52.49318557 46.25757163 49.61520052 46.265625 45.51171875 C46.26820313 44.24779297 46.27078125 42.98386719 46.2734375 41.68164062 C46.26183594 39.70454102 46.26183594 39.70454102 46.25 37.6875 C46.25773438 36.38103516 46.26546875 35.07457031 46.2734375 33.72851562 C46.26957031 31.82682617 46.26957031 31.82682617 46.265625 29.88671875 C46.26336914 28.73389404 46.26111328 27.58106934 46.25878906 26.39331055 C45.97216341 22.6349993 45.14661851 19.57905524 44 16 C43.34 16 42.68 16 42 16 C41.401875 15.38125 40.80375 14.7625 40.1875 14.125 C37.76301155 11.76978265 36.26625105 10.83555259 33 10 C29.34244606 10.06977074 29.34244606 10.06977074 26 11 C23.4937466 14.7593801 23.69405522 17.75016071 23.69921875 22.10546875 C23.69493362 22.90350418 23.6906485 23.70153961 23.68623352 24.52375793 C23.68049051 26.21415255 23.67998976 27.90457189 23.68432617 29.5949707 C23.68746726 32.16075863 23.66409384 34.72537185 23.63867188 37.29101562 C23.63639674 38.93749856 23.63569638 40.58398456 23.63671875 42.23046875 C23.627509 42.98909714 23.61829926 43.74772552 23.60881042 44.52934265 C23.66166976 50.72841386 24.88415337 56.17887116 28.6875 61.25 C30 63 30 63 30 67 C20.1 67 10.2 67 0 67 C0.95987134 61.24077198 1.82091326 59.5277902 5 55 C7.12692997 50.77901378 7.33610494 46.81431508 7.37109375 42.171875 C7.38012222 41.42343323 7.3891507 40.67499146 7.39845276 39.90386963 C7.41291692 38.32381157 7.42183244 36.74369414 7.42553711 35.16357422 C7.43739712 32.77075683 7.48658232 30.38055237 7.53710938 27.98828125 C7.62389831 19.73718676 7.50723604 12.65893137 2 6 C1.34 5.34 0.68 4.68 0 4 C0 2.68 0 1.36 0 0 Z " fill="#5D4487" transform="translate(827,130)"/>
<path d="M0 0 C7.59 0 15.18 0 23 0 C23.33 11.22 23.66 22.44 24 34 C26.97 32.68 29.94 31.36 33 30 C36.51171875 29.5390625 36.51171875 29.5390625 39.6875 29.625 C40.74324219 29.63789063 41.79898438 29.65078125 42.88671875 29.6640625 C50.33935131 30.46823615 58.12775489 33.59959624 63.25 39.1875 C69.63855942 47.62719675 70.62402589 55.51527642 71 65.9375 C71.26576656 80.06504548 71.26576656 80.06504548 78 92 C78 93.65 78 95.3 78 97 C68.43 97 58.86 97 49 97 C49 91.41833659 49.90397818 90.37085433 53 86 C55.41640328 81.39611585 55.34755767 77.01685494 55.3125 71.9375 C55.30686035 71.09203613 55.3012207 70.24657227 55.29541016 69.37548828 C55.08880035 58.65428028 53.2513626 49.26725397 46 41 C42.28599461 37.7704301 38.59634932 36.18071879 33.6875 35.625 C29.88550658 36.0116434 28.09614148 36.82513796 25.25271606 39.34750366 C22.82976355 42.54369494 23.20754003 46.09402199 23.30859375 49.95703125 C23.30996841 50.81882492 23.31134308 51.68061859 23.3127594 52.56852722 C23.32180265 54.38834042 23.34539062 56.20813202 23.38256836 58.02758789 C23.4371219 60.79333103 23.44409855 63.55604198 23.44335938 66.32226562 C23.45811669 68.09637987 23.47560681 69.87047391 23.49609375 71.64453125 C23.49943222 72.46250687 23.50277069 73.28048248 23.50621033 74.12324524 C23.64214533 79.69207442 24.66544109 83.92096625 27 89 C27.52915512 89.4661824 28.05831024 89.93236481 28.60350037 90.41267395 C30 92 30 92 30 97 C20.1 97 10.2 97 0 97 C0.95987134 91.24077198 1.82091326 89.5277902 5 85 C6.85531384 81.16052152 7.2644723 78.05521941 7.30639648 73.80786133 C7.32238388 72.57920853 7.33837128 71.35055573 7.35484314 70.08467102 C7.3612225 68.75046202 7.3666144 67.41624798 7.37109375 66.08203125 C7.38007208 64.70065724 7.38919413 63.31928415 7.39845276 61.93791199 C7.41491649 59.04378913 7.42263748 56.14978155 7.42553711 53.25561523 C7.43090424 49.5715358 7.46852391 45.88856155 7.51428127 42.20479298 C7.54423388 39.35033865 7.55126463 36.49614396 7.55226326 33.64154625 C7.55844341 31.63094226 7.58782449 29.62045193 7.61778259 27.61006165 C7.57522774 18.89696432 6.38334484 11.38334484 0 5 C0 3.35 0 1.7 0 0 Z " fill="#5C4386" transform="translate(659,100)"/>
<path d="M0 0 C6.04269454 3.46995518 9.734862 7.35815469 12 14 C12.75610984 17.29040667 13.12302714 20.32536373 13.11352539 23.69848633 C13.11344986 24.59904251 13.11337433 25.49959869 13.11329651 26.42744446 C13.10813522 27.3859581 13.10297394 28.34447174 13.09765625 29.33203125 C13.0962413 30.32377853 13.09482635 31.31552582 13.09336853 32.33732605 C13.08778418 35.49574843 13.07523452 38.65409915 13.0625 41.8125 C13.05748298 43.95768127 13.05292042 46.10286365 13.04882812 48.24804688 C13.03781988 53.49872224 13.0210973 58.749356 13 64 C12.15614746 63.83411377 11.31229492 63.66822754 10.44287109 63.49731445 C6.85379614 62.9788812 3.53744919 62.95153211 -0.0859375 63.04296875 C-1.4426937 63.06535832 -2.79946558 63.08681358 -4.15625 63.10742188 C-6.26509092 63.14441479 -8.37310873 63.18744673 -10.48144531 63.24682617 C-19.8497791 63.49756816 -27.05987745 63.65610853 -34.2421875 56.88671875 C-39.33032857 50.03355267 -42.06234788 43.63586021 -41 35 C-38.84704826 27.90792367 -34.31056091 22.38668345 -28.3125 18.0625 C-20.87937435 14.64728011 -12.54801545 15.26986675 -5 18 C-4.67 18.33 -4.34 18.66 -4 19 C-3.62269838 12.83740688 -4.03564567 8.47265414 -7 3 C-10.13871188 1.43064406 -12.53855822 1.64798897 -16 2 C-18.91652542 4.37391604 -20.74596841 6.56032994 -22.625 9.8125 C-25.58700106 12.54065887 -26.80862276 12.3125 -30.75 12.3125 C-32.50126074 12.23227209 -34.25215533 12.13560864 -36 12 C-34.79340556 6.14673337 -31.60083507 2.3283525 -27.0625 -1.4375 C-19.17054968 -5.44391679 -7.68517222 -3.92402821 0 0 Z " fill="#5E4588" transform="translate(468,133)"/>
<path d="M0 0 C6.45569584 4.11190818 11.68693655 8.6231229 13.83984375 16.171875 C14.23196205 19.90585579 14.19010124 23.60446282 14.1328125 27.35546875 C14.12856766 28.41097427 14.12432281 29.4664798 14.11994934 30.55397034 C14.10323424 33.90603771 14.06559463 37.2574911 14.02734375 40.609375 C14.01228768 42.88996524 13.99860089 45.17056496 13.98632812 47.45117188 C13.95335425 53.02494702 13.90322643 58.59836713 13.83984375 64.171875 C12.97573128 64.16696548 12.97573128 64.16696548 12.09416199 64.16195679 C9.46121656 64.14889219 6.82827799 64.14081092 4.1953125 64.1328125 C3.28906128 64.12757568 2.38281006 64.12233887 1.44909668 64.11694336 C-3.0344234 64.106728 -7.39743245 64.17382506 -11.84765625 64.796875 C-17.95768186 65.54042309 -23.01818039 64.32524662 -28.41015625 61.421875 C-34.409119 56.51363275 -38.45977252 51.12358797 -39.55078125 43.41015625 C-39.99061877 35.60304019 -38.33480519 30.09327206 -33.16015625 24.171875 C-26.74897071 18.818317 -21.40925229 16.83790724 -13.1015625 16.87109375 C-8.64543214 17.32676711 -5.04571561 19.02282489 -1.16015625 21.171875 C-1.44331185 19.08736783 -1.73701294 17.00429133 -2.03515625 14.921875 C-2.19757812 13.76171875 -2.36 12.6015625 -2.52734375 11.40625 C-3.08204764 8.57109677 -3.61005064 6.5831504 -5.16015625 4.171875 C-8.43257935 2.53566345 -11.65181575 2.35674013 -15.16015625 3.171875 C-18.56342398 5.94353191 -20.74608072 9.5507617 -23.16015625 13.171875 C-25.98046875 13.46484375 -25.98046875 13.46484375 -29.28515625 13.359375 C-30.92871094 13.31876953 -30.92871094 13.31876953 -32.60546875 13.27734375 C-33.44851563 13.24253906 -34.2915625 13.20773438 -35.16015625 13.171875 C-32.51869187 7.04367764 -29.75661856 2.92449126 -24.16015625 -0.828125 C-17.24113841 -3.13446428 -6.72875197 -3.12143417 0 0 Z " fill="#5B4286" transform="translate(793.16015625,131.828125)"/>
<path d="M0 0 C7.26 0 14.52 0 22 0 C22.33 18.48 22.66 36.96 23 56 C28.94 51.05 28.94 51.05 35 46 C41.1875 41.875 41.1875 41.875 43.91796875 40.1796875 C46.86581758 37.52683729 46.86581758 37.52683729 47 30 C53.6 30 60.2 30 67 30 C67 30.99 67 31.98 67 33 C66.10474609 33.29777344 66.10474609 33.29777344 65.19140625 33.6015625 C55.64459553 37.31815152 48.49966412 43.80822812 40.84008789 50.45361328 C38.94498538 52.04623359 36.99305373 53.53253538 35 55 C36.11761719 55.38285156 36.11761719 55.38285156 37.2578125 55.7734375 C40.14973005 57.06697327 41.69498178 58.3545246 43.875 60.625 C44.56851563 61.34558594 45.26203125 62.06617188 45.9765625 62.80859375 C48.35549208 65.38500204 50.66437438 68.01383043 52.96484375 70.66015625 C53.63644531 71.43230469 54.30804687 72.20445312 55 73 C55.43328613 73.50257324 55.86657227 74.00514648 56.31298828 74.52294922 C62.06265515 81.14938671 67.12491144 86.88203425 75.234375 90.65625 C76.10835937 91.32140625 76.10835937 91.32140625 77 92 C77 93.65 77 95.3 77 97 C67.43 97 57.86 97 48 97 C48 92 48 92 50 90 C50.62592398 86.71389912 50.47273672 84.73933825 48.65625 81.8984375 C47.56939364 80.48860024 46.45523702 79.09931088 45.3125 77.734375 C44 76 44 76 44 74 C43.34 74 42.68 74 42 74 C39.83992247 71.29425829 37.81255556 68.53058639 35.80859375 65.70898438 C33.43849115 62.33284262 33.43849115 62.33284262 30.01293945 60.22509766 C27.78711046 59.78329251 27.78711046 59.78329251 25.28515625 61.45703125 C22.30143708 64.77737515 22.27434406 67.43011875 22.4375 71.6875 C22.45119629 72.39994873 22.46489258 73.11239746 22.47900391 73.84643555 C22.77106171 81.01653627 25.06068173 86.09102259 29 92 C29 93.65 29 95.3 29 97 C19.43 97 9.86 97 0 97 C0 91.42776204 0 91.42776204 2.4375 88.5 C6.15753449 84.00628313 6.12604176 79.34601278 6.16113281 73.66845703 C6.17074036 72.4101004 6.1803479 71.15174377 6.19024658 69.85525513 C6.19509483 68.48944278 6.19937359 67.1236283 6.203125 65.7578125 C6.20595238 65.06505093 6.20877975 64.37228935 6.21169281 63.658535 C6.22664562 59.99354424 6.23590014 56.32859245 6.24023438 52.66357422 C6.24571798 48.89207477 6.26975449 45.12093651 6.29820633 41.34955025 C6.31689394 38.43605528 6.32204151 35.52264635 6.32357025 32.60909653 C6.32658274 31.21931862 6.3345635 29.82954171 6.34775543 28.43982315 C6.52433578 16.86912043 6.52433578 16.86912043 1.3125 6.875 C0 5 0 5 0 0 Z " fill="#5D4487" transform="translate(500,100)"/>
<path d="M0 0 C0 4.29 0 8.58 0 13 C-3.08012251 13.4322979 -5.02566293 13.69401198 -8 13 C-10.10051663 11.16097626 -11.69454672 9.17843536 -13.40625 6.9765625 C-16.29207273 3.39757647 -19.5996294 1.8846499 -24 1 C-32.65904776 0.09619351 -32.65904776 0.09619351 -40.625 2.8125 C-41.40875 3.534375 -42.1925 4.25625 -43 5 C-43.61875 5.4125 -44.2375 5.825 -44.875 6.25 C-46.84531574 9.31493559 -46.69324116 12.55418366 -46 16 C-44.15222575 18.77009471 -44.15222575 18.77009471 -41 21 C-40.36449219 21.49757813 -39.72898437 21.99515625 -39.07421875 22.5078125 C-33.6806991 26.5133625 -27.94968525 29.73482257 -22.0625 32.9375 C2.5097638 46.38241452 2.5097638 46.38241452 7 60 C7.99093195 68.00467108 6.33611834 74.21688881 1.375 80.625 C-5.12918952 87.78926815 -14.09547173 90.86807627 -23.59375 91.3359375 C-25.22894643 91.36576778 -26.86453463 91.3781977 -28.5 91.375 C-29.36858643 91.37338867 -30.23717285 91.37177734 -31.13208008 91.37011719 C-42.81988385 91.15199332 -53.54041909 88.22979046 -64 83 C-64 78.38 -64 73.76 -64 69 C-60.76769822 68.41230877 -59.10746774 68.14081604 -56 69 C-53.417442 71.32173675 -51.32595524 73.79545342 -49.17578125 76.51953125 C-45.68075198 80.50399011 -42.24102516 82.37197416 -37 83 C-34.06088804 83.1794204 -31.1316202 83.23055082 -28.1875 83.25 C-27.41857422 83.270625 -26.64964844 83.29125 -25.85742188 83.3125 C-19.66633294 83.35429638 -13.89394767 82.44176835 -9 78.3125 C-6.88751619 73.42738119 -7.49703221 69.38316142 -9.25 64.5625 C-17.0547462 52.68104788 -34.40541404 45.87190244 -46.41796875 39.0625 C-53.23460523 35.00072489 -58.40715229 30.18569542 -62 23 C-62.811649 16.76189768 -62.3222516 11.96742121 -58.6015625 6.8125 C-43.43094916 -10.35619412 -19.37794202 -6.66116757 0 0 Z " fill="#5D4387" transform="translate(402,106)"/>
<path d="M0 0 C11.40331871 8.6307471 19.82724682 20.61063463 22 35 C23.29588972 52.43253389 19.58740333 66.03771928 8.3125 79.6875 C-0.68684569 89.37120658 -13.2796467 95.22414512 -26.42578125 96.2734375 C-43.05736578 96.70803167 -55.80340823 92.45943513 -68 81 C-78.03966913 70.63436759 -82.93610209 58.49062076 -83.3125 44.1875 C-83.03977369 29.25172411 -77.80986651 16.04191313 -67.3984375 5.25 C-48.37220579 -12.59871249 -21.88351088 -13.73139718 0 0 Z M-58 5 C-59.36423352 7.06512679 -59.36423352 7.06512679 -60 9 C-58.9790625 10.1446875 -58.9790625 10.1446875 -57.9375 11.3125 C-57.298125 12.199375 -56.65875 13.08625 -56 14 C-56.33 14.99 -56.66 15.98 -57 17 C-60.26954202 16.43628586 -61.82575883 15.50037734 -64 13 C-69.49406806 15.19525398 -71.5157147 19.88529497 -74 25 C-75.78935323 30.0487699 -77 34.6307931 -77 40 C-74.36 40.33 -71.72 40.66 -69 41 C-69.33 42.32 -69.66 43.64 -70 45 C-73.465 45.495 -73.465 45.495 -77 46 C-76.09352581 57.42157482 -72.96967247 64.85349832 -66 74 C-63.13275314 73.42655063 -62.1385485 73.1385485 -60 71 C-59.01 71 -58.02 71 -57 71 C-57.56054661 74.36327963 -58.41841038 76.99112219 -60 80 C-51.00842548 85.59033506 -43.68462622 89.37655099 -33 90 C-32.67 87.36 -32.34 84.72 -32 82 C-30.68 82.33 -29.36 82.66 -28 83 C-27.505 86.465 -27.505 86.465 -27 90 C-17.77841928 89.07784193 -9.77636736 86.01496344 -2 81 C-0.57148988 78.92511294 -0.57148988 78.92511294 0 77 C-0.495 76.5875 -0.99 76.175 -1.5 75.75 C-3 74 -3 74 -3 70 C0.34373475 70.55728913 3.03312999 71.35173889 6 73 C12.50903532 65.79356803 16.47423405 55.72179795 16 46 C13.36 45.67 10.72 45.34 8 45 C7.67 43.35 7.34 41.7 7 40 C9.97 40 12.94 40 16 40 C15.09732445 31.22225841 13.02333232 23.37877044 8 16 C5.93285948 14.64535877 5.93285948 14.64535877 4 14 C3.443125 14.66 2.88625 15.32 2.3125 16 C0 18 0 18 -2.75 18.25 C-3.4925 18.1675 -4.235 18.085 -5 18 C-3.47793991 15.37098712 -2.15634036 13.15634036 0 11 C-0.19392862 8.40030827 -0.71881826 7.27908857 -2.57421875 5.4375 C-9.6563271 0.62009543 -18.31786912 -3 -27 -3 C-27.33 -0.36 -27.66 2.28 -28 5 C-29.32 5 -30.64 5 -32 5 C-32.495 1.04 -32.495 1.04 -33 -3 C-42.03095656 -3 -50.49027937 0.03312781 -58 5 Z " fill="#5E4587" transform="translate(256,74)"/>
<path d="M0 0 C12.79439086 9.50875647 21.60988169 21.71989694 24.8828125 37.5390625 C27.19046064 55.19474781 23.98107186 71.33584454 13.296875 85.70703125 C12.85730469 86.31289062 12.41773438 86.91875 11.96484375 87.54296875 C6.00964281 95.12855611 -2.76013224 101.16067205 -11.703125 104.70703125 C-12.77433594 105.15369141 -12.77433594 105.15369141 -13.8671875 105.609375 C-25.83856411 109.73284917 -42.35881099 109.76262598 -54.09375 104.98046875 C-71.18952986 96.6373187 -82.92847467 85.49870435 -89.765625 67.51953125 C-92.45318432 58.64131806 -92.33859902 49.89594132 -91.703125 40.70703125 C-91.61224609 39.28777344 -91.61224609 39.28777344 -91.51953125 37.83984375 C-89.54095589 23.33029114 -79.6540696 10.09660524 -68.390625 1.45703125 C-47.97874642 -12.73516134 -21.01010545 -13.92448264 0 0 Z M-73.515625 14.39453125 C-83.61064247 26.79061887 -86.80087148 41.0075142 -85.703125 56.70703125 C-83.49476317 71.79441083 -75.44694652 83.53732433 -63.703125 92.95703125 C-51.45405733 101.40466413 -37.19167721 103.51555173 -22.67578125 101.23046875 C-8.69611617 97.90102197 3.18973937 90.26815551 11.171875 78.26953125 C18.89303432 65.30381089 21.42455509 51.83109783 18.578125 36.94921875 C14.32337087 22.43501717 6.27022146 10.98588665 -6.86328125 3.17578125 C-30.35838019 -8.97574172 -55.21035015 -4.51956649 -73.515625 14.39453125 Z " fill="#EDE8F9" transform="translate(258.703125,68.29296875)"/>
<path d="M0 0 C0 3.3 0 6.6 0 10 C-1.98 10 -3.96 10 -6 10 C-6 9.34 -6 8.68 -6 8 C-6.99 7.67 -7.98 7.34 -9 7 C-9.928125 6.0409375 -9.928125 6.0409375 -10.875 5.0625 C-14.18416477 1.85066361 -16.89096981 1.12098511 -21.4375 0.625 C-25.70958983 1.07469367 -27.75644413 2.21980925 -31 5 C-32.40216123 6.85460279 -32.40216123 6.85460279 -32 9 C-28.87560378 13.06171509 -25.2143181 15.11080218 -20.73828125 17.48046875 C-17.32016637 19.37725433 -14.03792211 21.45003479 -10.75 23.5625 C-10.15968994 23.93858398 -9.56937988 24.31466797 -8.96118164 24.70214844 C-1.82524577 29.30675912 3.21193254 33.31696617 6.3125 41.4375 C7.33986806 46.76113451 6.83739004 50.35742722 4.375 55.1875 C0.89697834 59.30620986 -2.86026089 61.28675363 -8 63 C-19.37794126 63.83924355 -33.18657449 63.54228367 -43 57 C-43.29296875 54.6171875 -43.29296875 54.6171875 -43.1875 51.875 C-43.16042969 50.96492188 -43.13335938 50.05484375 -43.10546875 49.1171875 C-43.07066406 48.41851562 -43.03585937 47.71984375 -43 47 C-40.75 46.7578125 -40.75 46.7578125 -38 47 C-35.9375 48.6796875 -35.9375 48.6796875 -34 50.875 C-30.47774934 54.83753199 -27.6842271 56.69515415 -22.3515625 57.30078125 C-16.5101271 57.32588771 -12.01308814 57.16042513 -7 54 C-5.65147063 50.98564024 -5.87472892 49.48969605 -6.6875 46.3125 C-8.24541044 43.56761018 -9.21363092 43.33109967 -12 42 C-13.47474761 41.00302643 -14.93163175 39.97938527 -16.375 38.9375 C-19.38284833 36.79094948 -22.40904371 34.72229936 -25.5546875 32.78515625 C-39.36668428 24.26663145 -39.36668428 24.26663145 -43 17 C-43.65319555 11.55670376 -42.63464556 8.27341157 -39.62890625 3.86328125 C-29.10585368 -8.17387961 -13.35284421 -4.4246111 0 0 Z " fill="#5E4588" transform="translate(636,134)"/>
<path d="M0 0 C6.1288825 5.97939756 8.52282837 14.14566843 8.6796875 22.5625 C8.70613297 26.54342544 8.64944045 30.52005945 8.5625 34.5 C-3.74072374 33.69323123 -12.96606424 29.63956726 -21.875 21.1875 C-24.11432314 17.3358642 -24.87427812 13.94921438 -24.4375 9.5 C-22.83650873 5.43051998 -20.47594256 2.4773577 -17.3125 -0.5 C-11.47753401 -2.52955339 -5.65575916 -2.46796763 0 0 Z " fill="#F2EEFD" transform="translate(128.4375,110.5)"/>
<path d="M0 0 C6.36013743 2.59071235 9.27151872 7.97930165 12 14 C13.7904758 19.3714274 14.08352009 25.87817479 12.2109375 31.2734375 C10.50627728 34.35744111 8.94446184 36.03702544 6 38 C1.43383556 38.84066981 -2.75905571 38.60183604 -6.75 36.125 C-12.14833069 31.75611842 -15.58134655 23.92156398 -16.30859375 17.109375 C-16.70011704 6.90604084 -16.70011704 6.90604084 -13.625 2.6875 C-9.60856756 -1.12003998 -5.21200054 -1.14994932 0 0 Z " fill="#F2EDFC" transform="translate(780,154)"/>
<path d="M0 0 C5.44218916 2.650808 9.44987562 6.84776056 12.15234375 12.234375 C13.91643878 17.99003988 13.94311321 24.08765583 13 30 C9.10836464 36.82618153 9.10836464 36.82618153 5 38 C0.43399814 38.70246182 -2.35076723 38.14590265 -6.125 35.625 C-11.44545024 31.29632301 -13.874257 25.37722899 -16 19 C-16.60970354 12.94986492 -16.06367194 8.282193 -13 3 C-9.20027696 -0.36546898 -4.90483069 -1.08594037 0 0 Z " fill="#F2EEFD" transform="translate(453,154)"/>
<path d="M0 0 C-0.50907113 5.67356087 -2.06590753 9.90635563 -4.6875 14.9375 C-5.05488281 15.64261719 -5.42226562 16.34773438 -5.80078125 17.07421875 C-6.85162867 19.05833625 -7.92455466 21.02915159 -9 23 C-9.42925781 23.83660156 -9.85851562 24.67320313 -10.30078125 25.53515625 C-14.42865045 32.29840774 -22.09191138 34.90761498 -29.03466797 38.04882812 C-31.01820272 39.00880967 -32.87074968 40.09172921 -34.75390625 41.234375 C-38 43 -38 43 -42 43 C-43.12594643 38.99972938 -42.94742834 37.02712861 -41.05078125 33.34765625 C-40.39625977 32.05891602 -40.39625977 32.05891602 -39.72851562 30.74414062 C-39.26123047 29.85919922 -38.79394531 28.97425781 -38.3125 28.0625 C-37.86455078 27.18142578 -37.41660156 26.30035156 -36.95507812 25.39257812 C-35.67512915 22.90534103 -34.35058346 20.4494613 -33 18 C-32.38898438 16.88625 -31.77796875 15.7725 -31.1484375 14.625 C-28.31690067 11.16537682 -25.33651604 9.74251323 -21.3125 7.9375 C-19.87541411 7.26230341 -18.43920915 6.58522856 -17.00390625 5.90625 C-16.31441895 5.58398438 -15.62493164 5.26171875 -14.91455078 4.9296875 C-11.75476671 3.39532666 -8.7718499 1.57717804 -5.796875 -0.28515625 C-3.50690274 -1.19616695 -2.2831025 -0.80312676 0 0 Z " fill="#5D4487" transform="translate(247,97)"/>
<path d="M0 0 C6.24494637 2.56202928 10.27816515 7.9789714 13 14 C17.20474649 24.44404773 16.92078908 36.89891106 16 48 C15 49 15 49 11.4296875 49.19921875 C7.03852095 49.13956148 3.2693407 48.19699758 -0.875 46.8125 C-1.91708618 46.47085815 -1.91708618 46.47085815 -2.98022461 46.12231445 C-13.4450543 42.59595007 -21.12627065 38.75217354 -27.1640625 29.1484375 C-29.18570857 23.95261816 -28.94233891 17.05724727 -27.3125 11.76953125 C-21.47256403 0.74665211 -11.46471062 -1.33894431 0 0 Z M-20 11 C-22.51812087 14.4624162 -23.25504963 17.17006197 -23.125 21.375 C-22.20679944 27.00726115 -19.36937104 30.46430793 -15 34 C-6.99293409 38.88658555 0.57917372 42.13120928 10 42 C10.51191654 30.92269483 10.68973356 19.79236204 4.109375 10.26171875 C1.32978891 7.28138477 -0.53446872 6.21320899 -4.55078125 5.62890625 C-11.11394657 5.47109322 -15.41509215 6.07643418 -20 11 Z " fill="#5E4588" transform="translate(127,103)"/>
<path d="M0 0 C13.19017433 -0.58478605 13.19017433 -0.58478605 19 3 C22.45602126 6.67899037 22.56642872 10.70881655 22.421875 15.55859375 C21.72071026 19.61626006 20.02786468 21.24739574 17 24 C13.45956378 26.32341127 10.41879006 26.2083758 6.25 26.125 C5.07953125 26.10695312 3.9090625 26.08890625 2.703125 26.0703125 C1.81109375 26.04710937 0.9190625 26.02390625 0 26 C0.16226074 25.431604 0.32452148 24.86320801 0.49169922 24.27758789 C1.0090151 21.95960524 1.12927418 19.93002899 1.1328125 17.55859375 C1.13410156 16.72779297 1.13539063 15.89699219 1.13671875 15.04101562 C1.13285156 14.18185547 1.12898437 13.32269531 1.125 12.4375 C1.12886719 11.57447266 1.13273438 10.71144531 1.13671875 9.82226562 C1.13542969 8.99275391 1.13414062 8.16324219 1.1328125 7.30859375 C1.13112061 6.17635376 1.13112061 6.17635376 1.12939453 5.02124023 C1.07307558 2.79427073 1.07307558 2.79427073 0 0 Z " fill="#F1ECFC" transform="translate(630,220)"/>
<path d="M0 0 C8.22503793 -0.35934632 13.91576842 -0.54683269 20.375 5.0625 C22.75684839 9.36814902 22.89265847 13.19041773 22 18 C20.32812668 21.35059857 18.09315509 23.44967877 14.71875 25.1484375 C11.57073156 26.13445477 8.9792811 26.19734684 5.6875 26.125 C4.61886719 26.10695312 3.55023437 26.08890625 2.44921875 26.0703125 C1.64097656 26.04710937 0.83273437 26.02390625 0 26 C0.16242187 25.36320312 0.32484375 24.72640625 0.4921875 24.0703125 C1.16760593 19.98662879 1.14489402 16.00632379 1.125 11.875 C1.12886719 11.06417969 1.13273438 10.25335938 1.13671875 9.41796875 C1.13478516 8.24814453 1.13478516 8.24814453 1.1328125 7.0546875 C1.13168457 6.34812012 1.13055664 5.64155273 1.12939453 4.91357422 C1.06552723 2.77740811 1.06552723 2.77740811 0 0 Z " fill="#715A97" transform="translate(770,220)"/>
<path d="M0 0 C2.06183633 -0.08150744 4.12461349 -0.1394194 6.1875 -0.1875 C7.33605469 -0.22230469 8.48460937 -0.25710937 9.66796875 -0.29296875 C13.57912447 0.0509195 16.2059851 1.2059851 19 4 C19.70072993 11.12408759 19.70072993 11.12408759 17 14.5 C13.01367043 16.49316478 10.41916048 16.2996041 6 16 C6.66 19.3 7.32 22.6 8 26 C5.36 26 2.72 26 0 26 C0.66 22.7 1.32 19.4 2 16 C-0.10375 16.2165625 -0.10375 16.2165625 -2.25 16.4375 C-3.03890625 16.51871094 -3.8278125 16.59992188 -4.640625 16.68359375 C-6.82364639 16.97634993 -8.8773182 17.42064419 -11 18 C-11 16.68 -11 15.36 -11 14 C-6.71 14 -2.42 14 2 14 C1.855625 12.246875 1.71125 10.49375 1.5625 8.6875 C1.48128906 7.70136719 1.40007813 6.71523437 1.31640625 5.69921875 C1.08187441 2.90624401 1.08187441 2.90624401 0 0 Z " fill="#6B5492" transform="translate(682,220)"/>
<path d="M0 0 C2.36450195 0.21557617 2.36450195 0.21557617 5 1 C6.27026367 2.9777832 6.27026367 2.9777832 7.16796875 5.55078125 C7.50376953 6.47697266 7.83957031 7.40316406 8.18554688 8.35742188 C8.51619141 9.33259766 8.84683594 10.30777344 9.1875 11.3125 C9.86706209 13.22576804 10.54800143 15.13854759 11.23046875 17.05078125 C11.52332764 17.90325439 11.81618652 18.75572754 12.11791992 19.6340332 C12.94421642 21.85037403 13.89968282 23.90840064 15 26 C12.69 26 10.38 26 8 26 C7.67 23.69 7.34 21.38 7 19 C3.04 19 -0.92 19 -5 19 C-5.33 21.31 -5.66 23.62 -6 26 C-7.65 26 -9.3 26 -11 26 C-10.71463379 25.44731445 -10.42926758 24.89462891 -10.13525391 24.32519531 C-8.92718177 21.85085575 -7.87386799 19.3472185 -6.8359375 16.796875 C-6.43632812 15.8171875 -6.03671875 14.8375 -5.625 13.828125 C-5.2125 12.81234375 -4.8 11.7965625 -4.375 10.75 C-3.95476562 9.71875 -3.53453125 8.6875 -3.1015625 7.625 C-2.06630057 5.08390253 -1.03249958 2.54222084 0 0 Z " fill="#7F6AA2" transform="translate(422,220)"/>
<path d="M0 0 C7 1 7 1 9.375 3.4375 C12.02427663 7.61520546 12.33400089 9.9899867 12 15 C10.64184747 18.27191292 9.50104494 20.49895506 7 23 C4.69 23 2.38 23 0 23 C0 15.41 0 7.82 0 0 Z " fill="#F2EEFD" transform="translate(776,221)"/>
<path d="M0 0 C13.19017433 -0.58478605 13.19017433 -0.58478605 19 3 C22.45602126 6.67899037 22.56642872 10.70881655 22.421875 15.55859375 C21.72071026 19.61626006 20.02786468 21.24739574 17 24 C13.45956378 26.32341127 10.41879006 26.2083758 6.25 26.125 C5.07953125 26.10695312 3.9090625 26.08890625 2.703125 26.0703125 C1.81109375 26.04710937 0.9190625 26.02390625 0 26 C0.16226074 25.431604 0.32452148 24.86320801 0.49169922 24.27758789 C1.0090151 21.95960524 1.12927418 19.93002899 1.1328125 17.55859375 C1.13410156 16.72779297 1.13539063 15.89699219 1.13671875 15.04101562 C1.13285156 14.18185547 1.12898437 13.32269531 1.125 12.4375 C1.12886719 11.57447266 1.13273438 10.71144531 1.13671875 9.82226562 C1.13542969 8.99275391 1.13414062 8.16324219 1.1328125 7.30859375 C1.13112061 6.17635376 1.13112061 6.17635376 1.12939453 5.02124023 C1.07307558 2.79427073 1.07307558 2.79427073 0 0 Z M6 1 C6 8.59 6 16.18 6 24 C12.72234885 24.73350917 12.72234885 24.73350917 15.9375 21.625 C18.94754645 17.44272424 18.74940273 12.93288172 18 8 C16.63976359 4.56361328 15.79917967 3.43032751 12.5625 1.6875 C9.79829197 0.82724762 9.79829197 0.82724762 6 1 Z " fill="#6C5592" transform="translate(630,220)"/>
<path d="M0 0 C2.64 0 5.28 0 8 0 C7.34 3.63 6.68 7.26 6 11 C7.81895279 9.73841989 9.6299902 8.46542094 11.4375 7.1875 C12.44683594 6.47980469 13.45617187 5.77210938 14.49609375 5.04296875 C17.23804457 3.1777713 17.23804457 3.1777713 18 0 C19.98 0 21.96 0 24 0 C19.75259665 3.45101522 15.38894929 6.73279209 11 10 C11.66 10.639375 12.32 11.27875 13 11.9375 C15.51063376 14.45536902 17.92222876 17.05522972 20.3125 19.6875 C21.00988281 20.45449219 21.70726562 21.22148437 22.42578125 22.01171875 C24 24 24 24 24 26 C21.69 26 19.38 26 17 26 C16.773125 25.154375 16.54625 24.30875 16.3125 23.4375 C14.83296122 19.56251749 13.06996216 15.86642876 10 13 C8.68 13 7.36 13 6 13 C6.14148989 14.6045556 6.28835686 16.20863767 6.4375 17.8125 C6.51871094 18.70582031 6.59992188 19.59914062 6.68359375 20.51953125 C6.93489767 23.12743559 6.93489767 23.12743559 8 26 C5.36 26 2.72 26 0 26 C0.495 24.515 0.495 24.515 1 23 C1.09230479 21.481325 1.1306756 19.95897605 1.1328125 18.4375 C1.13410156 17.55835938 1.13539063 16.67921875 1.13671875 15.7734375 C1.13285156 14.85820312 1.12898438 13.94296875 1.125 13 C1.12886719 12.08476562 1.13273437 11.16953125 1.13671875 10.2265625 C1.13542969 9.34742188 1.13414062 8.46828125 1.1328125 7.5625 C1.13168457 6.75941406 1.13055664 5.95632812 1.12939453 5.12890625 C1.0804355 2.81115535 1.0804355 2.81115535 0 0 Z " fill="#61488A" transform="translate(445,220)"/>
<path d="M0 0 C2.78515625 -0.26953125 2.78515625 -0.26953125 6 0 C7.87109375 1.80078125 7.87109375 1.80078125 9.4375 4.3125 C10.015 5.21355469 10.5925 6.11460937 11.1875 7.04296875 C12.0846875 8.50669922 12.0846875 8.50669922 13 10 C14.31185244 12.04208281 15.62433102 14.08376355 16.9375 16.125 C17.948125 17.73375 18.95875 19.3425 20 21 C20 14.07 20 7.14 20 0 C21.32 0 22.64 0 24 0 C23.67 8.58 23.34 17.16 23 26 C21.35 26 19.7 26 18 26 C16.4543457 24.39526367 16.4543457 24.39526367 15.17578125 22.16796875 C14.70462891 21.36939453 14.23347656 20.57082031 13.74804688 19.74804688 C13.27431641 18.90306641 12.80058594 18.05808594 12.3125 17.1875 C11.82716797 16.35412109 11.34183594 15.52074219 10.84179688 14.66210938 C9.93837495 13.11071586 9.04275468 11.55473467 8.1574707 9.99291992 C7.16849153 8.29010681 6.09230206 6.63845308 5 5 C5 11.93 5 18.86 5 26 C3.68 26 2.36 26 1 26 C1.00523682 25.31897217 1.01047363 24.63794434 1.01586914 23.9362793 C1.03664458 20.85336223 1.04966198 17.7704599 1.0625 14.6875 C1.07087891 13.61564453 1.07925781 12.54378906 1.08789062 11.43945312 C1.09111328 10.41142578 1.09433594 9.38339844 1.09765625 8.32421875 C1.10289307 7.37635498 1.10812988 6.42849121 1.11352539 5.4519043 C1.10498854 2.86161319 1.10498854 2.86161319 0 0 Z " fill="#705A96" transform="translate(597,220)"/>
<path d="M0 0 C2.75 -0.3046875 2.75 -0.3046875 6 0 C8.125 2.0546875 8.125 2.0546875 10 4.875 C11.00546875 6.36580078 11.00546875 6.36580078 12.03125 7.88671875 C14.76908063 12.21618504 17.43065868 16.56788623 20 21 C20 16.05 20 11.1 20 6 C21.32 6 22.64 6 24 6 C23.67 12.6 23.34 19.2 23 26 C21.35 26 19.7 26 18 26 C16.4543457 24.39526367 16.4543457 24.39526367 15.17578125 22.16796875 C14.70462891 21.36939453 14.23347656 20.57082031 13.74804688 19.74804688 C13.27431641 18.90306641 12.80058594 18.05808594 12.3125 17.1875 C11.82716797 16.35412109 11.34183594 15.52074219 10.84179688 14.66210938 C9.93837495 13.11071586 9.04275468 11.55473467 8.1574707 9.99291992 C7.16849153 8.29010681 6.09230206 6.63845308 5 5 C5 11.93 5 18.86 5 26 C3.68 26 2.36 26 1 26 C1.00523682 25.31897217 1.01047363 24.63794434 1.01586914 23.9362793 C1.03664458 20.85336223 1.04966198 17.7704599 1.0625 14.6875 C1.07087891 13.61564453 1.07925781 12.54378906 1.08789062 11.43945312 C1.09111328 10.41142578 1.09433594 9.38339844 1.09765625 8.32421875 C1.10289307 7.37635498 1.10812988 6.42849121 1.11352539 5.4519043 C1.10498854 2.86161319 1.10498854 2.86161319 0 0 Z " fill="#6C5593" transform="translate(828,220)"/>
<path d="M0 0 C6.27 0 12.54 0 19 0 C19 1.65 19 3.3 19 5 C14.125 4.125 14.125 4.125 13 3 C10.67182036 2.63239269 8.3381615 2.29758419 6 2 C6 5.63 6 9.26 6 13 C7.98 13 9.96 13 12 13 C12 13.33 12 13.66 12 14 C10.02 14 8.04 14 6 14 C6 17.3 6 20.6 6 24 C7.8253125 23.5359375 7.8253125 23.5359375 9.6875 23.0625 C12.7782972 22.28842823 15.86734334 21.58737312 19 21 C19 22.65 19 24.3 19 26 C12.73 26 6.46 26 0 26 C0.495 24.515 0.495 24.515 1 23 C1.09230479 21.481325 1.1306756 19.95897605 1.1328125 18.4375 C1.13410156 17.55835938 1.13539063 16.67921875 1.13671875 15.7734375 C1.13285156 14.85820312 1.12898437 13.94296875 1.125 13 C1.12886719 12.08476562 1.13273438 11.16953125 1.13671875 10.2265625 C1.13542969 9.34742188 1.13414062 8.46828125 1.1328125 7.5625 C1.13168457 6.75941406 1.13055664 5.95632812 1.12939453 5.12890625 C1.0804355 2.81115535 1.0804355 2.81115535 0 0 Z " fill="#634B8C" transform="translate(801,220)"/>
<path d="M0 0 C5.94 0 11.88 0 18 0 C18 1.65 18 3.3 18 5 C16.9790625 4.5359375 16.9790625 4.5359375 15.9375 4.0625 C12.63034088 2.86629351 9.48454122 2.40994603 6 2 C6 5.3 6 8.6 6 12 C7.65 12 9.3 12 11 12 C11 12.66 11 13.32 11 14 C9.35 14 7.7 14 6 14 C6 17.3 6 20.6 6 24 C9.96 23.01 13.92 22.02 18 21 C18 22.65 18 24.3 18 26 C12.06 26 6.12 26 0 26 C0.33 24.35 0.66 22.7 1 21 C1.08566698 19.56176459 1.13051982 18.12047016 1.1328125 16.6796875 C1.13410156 15.89722656 1.13539063 15.11476562 1.13671875 14.30859375 C1.13285156 13.50550781 1.12898437 12.70242187 1.125 11.875 C1.12886719 11.06417969 1.13273438 10.25335938 1.13671875 9.41796875 C1.13478516 8.24814453 1.13478516 8.24814453 1.1328125 7.0546875 C1.13168457 6.34812012 1.13055664 5.64155273 1.12939453 4.91357422 C1.06552723 2.77740811 1.06552723 2.77740811 0 0 Z " fill="#5F4688" transform="translate(710,220)"/>
<path d="M0 0 C2.6796875 -0.4453125 2.6796875 -0.4453125 6 0 C8.170527 2.07757081 9.59832722 4.55325468 11.125 7.125 C11.54136719 7.79015625 11.95773437 8.4553125 12.38671875 9.140625 C13.17543029 10.40157448 13.95540877 11.66806515 14.72314453 12.94189453 C16.41579286 15.67019767 18.21901528 18.32852292 20 21 C20 14.07 20 7.14 20 0 C21.32 0 22.64 0 24 0 C23.67 0.99 23.34 1.98 23 3 C22.85164052 4.77166975 22.75229982 6.54767612 22.68359375 8.32421875 C22.64169922 9.35224609 22.59980469 10.38027344 22.55664062 11.43945312 C22.51732422 12.51130859 22.47800781 13.58316406 22.4375 14.6875 C22.39431641 15.77095703 22.35113281 16.85441406 22.30664062 17.97070312 C22.20053162 20.64700791 22.09847639 23.32340526 22 26 C20.68 26 19.36 26 18 26 C16.46020508 24.27172852 16.46020508 24.27172852 15.01953125 21.87890625 C14.49552734 21.02619141 13.97152344 20.17347656 13.43164062 19.29492188 C12.89732422 18.39322266 12.36300781 17.49152344 11.8125 16.5625 C10.73631713 14.79257942 9.65952661 13.02302812 8.58203125 11.25390625 C8.10999268 10.46314697 7.6379541 9.6723877 7.15161133 8.85766602 C6.13339325 7.05725227 6.13339325 7.05725227 5 6 C5 12.6 5 19.2 5 26 C3.35 26 1.7 26 0 26 C0.495 24.515 0.495 24.515 1 23 C1.09230479 21.481325 1.1306756 19.95897605 1.1328125 18.4375 C1.13410156 17.55835938 1.13539063 16.67921875 1.13671875 15.7734375 C1.13285156 14.85820312 1.12898438 13.94296875 1.125 13 C1.12886719 12.08476562 1.13273437 11.16953125 1.13671875 10.2265625 C1.13542969 9.34742188 1.13414062 8.46828125 1.1328125 7.5625 C1.13168457 6.75941406 1.13055664 5.95632812 1.12939453 5.12890625 C1.0804355 2.81115535 1.0804355 2.81115535 0 0 Z " fill="#654D8D" transform="translate(494,220)"/>
<path d="M0 0 C2.6796875 -0.4453125 2.6796875 -0.4453125 6 0 C8.170527 2.07757081 9.59832722 4.55325468 11.125 7.125 C11.54136719 7.79015625 11.95773437 8.4553125 12.38671875 9.140625 C13.17543029 10.40157448 13.95540877 11.66806515 14.72314453 12.94189453 C16.41579286 15.67019767 18.21901528 18.32852292 20 21 C20 14.07 20 7.14 20 0 C21.32 0 22.64 0 24 0 C23.67 0.99 23.34 1.98 23 3 C22.85164052 4.77166975 22.75229982 6.54767612 22.68359375 8.32421875 C22.64169922 9.35224609 22.59980469 10.38027344 22.55664062 11.43945312 C22.51732422 12.51130859 22.47800781 13.58316406 22.4375 14.6875 C22.39431641 15.77095703 22.35113281 16.85441406 22.30664062 17.97070312 C22.20053162 20.64700791 22.09847639 23.32340526 22 26 C20.68 26 19.36 26 18 26 C16.46020508 24.27172852 16.46020508 24.27172852 15.01953125 21.87890625 C14.49552734 21.02619141 13.97152344 20.17347656 13.43164062 19.29492188 C12.89732422 18.39322266 12.36300781 17.49152344 11.8125 16.5625 C10.73631713 14.79257942 9.65952661 13.02302812 8.58203125 11.25390625 C8.10999268 10.46314697 7.6379541 9.6723877 7.15161133 8.85766602 C6.13339325 7.05725227 6.13339325 7.05725227 5 6 C5 12.6 5 19.2 5 26 C3.35 26 1.7 26 0 26 C0.495 24.515 0.495 24.515 1 23 C1.09230479 21.481325 1.1306756 19.95897605 1.1328125 18.4375 C1.13410156 17.55835938 1.13539063 16.67921875 1.13671875 15.7734375 C1.13285156 14.85820312 1.12898437 13.94296875 1.125 13 C1.12886719 12.08476562 1.13273438 11.16953125 1.13671875 10.2265625 C1.13542969 9.34742188 1.13414062 8.46828125 1.1328125 7.5625 C1.13168457 6.75941406 1.13055664 5.95632812 1.12939453 5.12890625 C1.0804355 2.81115535 1.0804355 2.81115535 0 0 Z " fill="#644C8D" transform="translate(737,220)"/>
<path d="M0 0 C5.94 0 11.88 0 18 0 C18 1.65 18 3.3 18 5 C13.59986116 4.17497397 9.36745939 3.09186485 5 2 C5 9.26 5 16.52 5 24 C8.3 23.01 11.6 22.02 15 21 C15.99 21 16.98 21 18 21 C18 22.65 18 24.3 18 26 C12.06 26 6.12 26 0 26 C0 17.42 0 8.84 0 0 Z " fill="#695190" transform="translate(662,220)"/>
<path d="M0 0 C0.66 0.33 1.32 0.66 2 1 C-2.15966555 10.616168 -5.30555914 17.0112884 -15.4609375 21.21484375 C-18 22 -18 22 -20 22 C-19.42771172 19.97097793 -18.72881089 17.97820098 -18 16 C-17.60941406 14.93265625 -17.60941406 14.93265625 -17.2109375 13.84375 C-13.80606469 6.25426252 -7.51656105 2.9327919 0 0 Z " fill="#EDE8F9" transform="translate(235,107)"/>
<path d="M0 0 C7.92 0 15.84 0 24 0 C24 1.32 24 2.64 24 4 C20.7 3.34 17.4 2.68 14 2 C14.14062311 5.43778631 14.28726929 8.87513171 14.4375 12.3125 C14.47681641 13.28896484 14.51613281 14.26542969 14.55664062 15.27148438 C14.61948242 16.67817383 14.61948242 16.67817383 14.68359375 18.11328125 C14.72025146 18.97735596 14.75690918 19.84143066 14.79467773 20.73168945 C14.92747354 23.1647826 14.92747354 23.1647826 16 26 C13.36 26 10.72 26 8 26 C8.15847412 25.43829102 8.31694824 24.87658203 8.48022461 24.29785156 C9.02188362 21.90325571 9.20641474 19.68561447 9.31640625 17.234375 C9.35830078 16.34492188 9.40019531 15.45546875 9.44335938 14.5390625 C9.50233398 13.15847656 9.50233398 13.15847656 9.5625 11.75 C9.60568359 10.81414062 9.64886719 9.87828125 9.69335938 8.9140625 C9.79917939 6.60953778 9.90006917 4.30478761 10 2 C6.7 2.66 3.4 3.32 0 4 C0 2.68 0 1.36 0 0 Z " fill="#5F4789" transform="translate(848,220)"/>
<path d="M0 0 C2.31 0 4.62 0 7 0 C6.67 0.99 6.34 1.98 6 3 C5.90769521 4.518675 5.8693244 6.04102395 5.8671875 7.5625 C5.86589844 8.44164062 5.86460937 9.32078125 5.86328125 10.2265625 C5.86714844 11.14179688 5.87101562 12.05703125 5.875 13 C5.87113281 13.91523438 5.86726563 14.83046875 5.86328125 15.7734375 C5.86521484 17.09214844 5.86521484 17.09214844 5.8671875 18.4375 C5.86831543 19.24058594 5.86944336 20.04367188 5.87060547 20.87109375 C5.9195645 23.18884465 5.9195645 23.18884465 7 26 C4.36 26 1.72 26 -1 26 C-1 20.39 -1 14.78 -1 9 C-1.99 10.98 -2.98 12.96 -4 15 C-5.32830615 11.01508155 -4.23204404 9.59951452 -2.5625 5.8125 C-2.08941406 4.72582031 -1.61632812 3.63914063 -1.12890625 2.51953125 C-0.75636719 1.68808594 -0.38382812 0.85664063 0 0 Z " fill="#735D99" transform="translate(397,220)"/>
<path d="M0 0 C2.31 0 4.62 0 7 0 C7 8.58 7 17.16 7 26 C4.69 26 2.38 26 0 26 C0 17.42 0 8.84 0 0 Z " fill="#6F5895" transform="translate(581,220)"/>
<path d="M0 0 C1.98 0 3.96 0 6 0 C6.23710693 0.54003662 6.47421387 1.08007324 6.71850586 1.63647461 C7.78909926 4.07121544 8.86325029 6.50437032 9.9375 8.9375 C10.31068359 9.78763672 10.68386719 10.63777344 11.06835938 11.51367188 C11.42607422 12.32255859 11.78378906 13.13144531 12.15234375 13.96484375 C12.48226318 14.7137085 12.81218262 15.46257324 13.15209961 16.23413086 C13.87116662 17.98162096 13.87116662 17.98162096 15 19 C15.99 17.68 16.98 16.36 18 15 C17.45276317 18.37462715 16.9451 20.08235 15 23 C13.68 23 12.36 23 11 23 C8.69 17.72 6.38 12.44 4 7 C4 13.27 4 19.54 4 26 C2.68 26 1.36 26 0 26 C0.495 24.515 0.495 24.515 1 23 C1.09230479 21.481325 1.1306756 19.95897605 1.1328125 18.4375 C1.13410156 17.55835938 1.13539063 16.67921875 1.13671875 15.7734375 C1.13285156 14.85820312 1.12898438 13.94296875 1.125 13 C1.12886719 12.08476562 1.13273437 11.16953125 1.13671875 10.2265625 C1.13542969 9.34742188 1.13414062 8.46828125 1.1328125 7.5625 C1.13168457 6.75941406 1.13055664 5.95632812 1.12939453 5.12890625 C1.0804355 2.81115535 1.0804355 2.81115535 0 0 Z " fill="#634B8C" transform="translate(374,220)"/>
<path d="M0 0 C0.99 0.33 1.98 0.66 3 1 C2.51402344 1.39703125 2.02804687 1.7940625 1.52734375 2.203125 C-0.92432945 5.08744641 -0.47161111 7.77641208 -0.34375 11.42578125 C0.21481006 15.60863444 1.34846389 17.66858284 4 21 C6.32163461 22.39198649 8.39972526 23.14991018 11 24 C11 24.33 11 24.66 11 25 C4.93707386 25.41813284 1.80292012 25.13274522 -3 21 C-5.96819017 17.4381718 -6.47095651 14.42632893 -6.29296875 9.92578125 C-5.64759497 5.68352424 -3.09095864 2.79658163 0 0 Z " fill="#654D8D" transform="translate(533,221)"/>
<path d="M0 0 C6.10643016 0.45232816 6.10643016 0.45232816 8.9375 2.1875 C10.5339636 4.91087907 10.38630872 6.90953021 10 10 C9 11.875 9 11.875 7 13 C4.28121737 13.24131207 1.7407889 13.1347929 -1 13 C-1.02686553 11.02090602 -1.04633375 9.04171029 -1.0625 7.0625 C-1.07410156 5.96035156 -1.08570313 4.85820312 -1.09765625 3.72265625 C-1 1 -1 1 0 0 Z " fill="#EDE8F8" transform="translate(689,221)"/>
<path d="M0 0 C2.31 0 4.62 0 7 0 C6.83757812 0.66 6.67515625 1.32 6.5078125 2 C5.88497164 5.67955215 5.85441667 9.28127862 5.875 13 C5.87113281 13.69867188 5.86726563 14.39734375 5.86328125 15.1171875 C5.87036343 18.87074298 6.10212977 22.35151145 7 26 C4.69 26 2.38 26 0 26 C0 17.42 0 8.84 0 0 Z " fill="#624A8B" transform="translate(478,220)"/>
<path d="M0 0 C1.98 0 3.96 0 6 0 C1.75259665 3.45101522 -2.61105071 6.73279209 -7 10 C-6.34 10.639375 -5.68 11.27875 -5 11.9375 C-2.48936624 14.45536902 -0.07777124 17.05522972 2.3125 19.6875 C3.00988281 20.45449219 3.70726562 21.22148437 4.42578125 22.01171875 C6 24 6 24 6 26 C3.69 26 1.38 26 -1 26 C-1.226875 25.154375 -1.45375 24.30875 -1.6875 23.4375 C-3.2146176 19.43790627 -5.00035875 16.08485833 -8 13 C-10.66461093 11.96127313 -10.66461093 11.96127313 -13 12 C-13 9.36 -13 6.72 -13 4 C-12.67 4 -12.34 4 -12 4 C-12 6.31 -12 8.62 -12 11 C-10.18104721 9.73841989 -8.3700098 8.46542094 -6.5625 7.1875 C-5.55316406 6.47980469 -4.54382813 5.77210938 -3.50390625 5.04296875 C-0.76195543 3.1777713 -0.76195543 3.1777713 0 0 Z " fill="#664E8E" transform="translate(463,220)"/>
<path d="M0 0 C2.36450195 0.21557617 2.36450195 0.21557617 5 1 C6.27026367 2.9777832 6.27026367 2.9777832 7.16796875 5.55078125 C7.50376953 6.47697266 7.83957031 7.40316406 8.18554688 8.35742188 C8.51619141 9.33259766 8.84683594 10.30777344 9.1875 11.3125 C9.86706209 13.22576804 10.54800143 15.13854759 11.23046875 17.05078125 C11.52332764 17.90325439 11.81618652 18.75572754 12.11791992 19.6340332 C12.94421642 21.85037403 13.89968282 23.90840064 15 26 C12.69 26 10.38 26 8 26 C7.938125 25.113125 7.87625 24.22625 7.8125 23.3125 C7.11713413 18.19207857 4.99104657 13.5501968 3.05859375 8.79296875 C2 6 2 6 2 4 C1.01 4 0.02 4 -1 4 C-0.67 2.68 -0.34 1.36 0 0 Z " fill="#644C8C" transform="translate(422,220)"/>
<path d="M0 0 C3.30347007 0.55676462 6.17808677 1.87669428 9.1875 3.3125 C10.50814453 3.92544922 10.50814453 3.92544922 11.85546875 4.55078125 C14 6 14 6 14.86328125 8.10546875 C14.93095703 9.04326172 14.93095703 9.04326172 15 10 C14.67 10.33 14.34 10.66 14 11 C7.69732126 10.73738839 3.31067714 8.26347733 -2 5 C-1.125 1.125 -1.125 1.125 0 0 Z " fill="#634A8B" transform="translate(164,193)"/>
<path d="M0 0 C-0.125 1.8125 -0.125 1.8125 -1 4 C-5.73216685 7.19421263 -10.45409687 7.64259735 -16 8 C-16.33 6.35 -16.66 4.7 -17 3 C-15.75108386 2.51801537 -14.50081192 2.03954323 -13.25 1.5625 C-12.55390625 1.29566406 -11.8578125 1.02882812 -11.140625 0.75390625 C-6.94193898 -0.72482806 -4.38413131 -1.09603283 0 0 Z " fill="#604789" transform="translate(225,202)"/>
<path d="M0 0 C4.11045466 0.03709797 7.48755942 0.89168647 11.375 2.1875 C11.9375 4.125 11.9375 4.125 12.375 6.1875 C12.045 6.5175 11.715 6.8475 11.375 7.1875 C8.87927272 7.12267591 6.42477139 6.99623196 3.9375 6.8125 C3.24333984 6.76867187 2.54917969 6.72484375 1.83398438 6.6796875 C-3.36542112 6.31728944 -3.36542112 6.31728944 -5.625 5.1875 C-4.50626055 0.23308244 -4.50626055 0.23308244 0 0 Z " fill="#604789" transform="translate(122.625,177.8125)"/>
<path d="M0 0 C5.60461531 0.42089996 10.72086547 0.91613111 16 3 C15.67 4.65 15.34 6.3 15 8 C3.29384966 7.40546697 3.29384966 7.40546697 -1 4 C-0.67 2.68 -0.34 1.36 0 0 Z " fill="#5F4689" transform="translate(185,203)"/>
<path d="M0 0 C1.32 0 2.64 0 4 0 C4 7.92 4 15.84 4 24 C2.35 24 0.7 24 -1 24 C-0.83701416 23.43829102 -0.67402832 22.87658203 -0.50610352 22.29785156 C0.02985098 19.86446819 0.11361396 17.72377772 0.09765625 15.234375 C0.09443359 14.34492188 0.09121094 13.45546875 0.08789062 12.5390625 C0.07951172 11.61867187 0.07113281 10.69828125 0.0625 9.75 C0.05798828 8.81414062 0.05347656 7.87828125 0.04882812 6.9140625 C0.03706918 4.60930959 0.02063426 2.30468773 0 0 Z " fill="#593F83" transform="translate(771,221)"/>
<path d="M0 0 C1.65 0 3.3 0 5 0 C4.67 7.92 4.34 15.84 4 24 C2.68 24 1.36 24 0 24 C0 16.08 0 8.16 0 0 Z " fill="#583E83" transform="translate(631,221)"/>
<path d="M0 0 C0.66 0 1.32 0 2 0 C2.6708712 1.6232687 3.33657029 3.24867578 4 4.875 C4.556875 6.23238281 4.556875 6.23238281 5.125 7.6171875 C6 10 6 10 6 12 C2.7 12 -0.6 12 -4 12 C-2.66666667 8 -1.33333333 4 0 0 Z " fill="#F0EBFB" transform="translate(422,224)"/>
<path d="M0 0 C2.64 0 5.28 0 8 0 C8 3.63 8 7.26 8 11 C5.36 11 2.72 11 0 11 C0.474375 10.443125 0.94875 9.88625 1.4375 9.3125 C3.12395996 6.81653926 3.58953107 4.9553763 4 2 C2.68 2 1.36 2 0 2 C0 1.34 0 0.68 0 0 Z " fill="#634B8C" transform="translate(545,234)"/>
<path d="M0 0 C7.92 0 15.84 0 24 0 C24 1.32 24 2.64 24 4 C23.39414062 3.84402344 22.78828125 3.68804687 22.1640625 3.52734375 C14.42698449 1.72996101 7.66270981 1.95311176 0 4 C0 2.68 0 1.36 0 0 Z " fill="#685090" transform="translate(848,220)"/>
<path d="M0 0 C0.66 0 1.32 0 2 0 C2.33 7.59 2.66 15.18 3 23 C1.35 23 -0.3 23 -2 23 C-1.505 21.515 -1.505 21.515 -1 20 C-0.8535286 18.44733347 -0.75305926 16.89004338 -0.68359375 15.33203125 C-0.64169922 14.43935547 -0.59980469 13.54667969 -0.55664062 12.62695312 C-0.51732422 11.69818359 -0.47800781 10.76941406 -0.4375 9.8125 C-0.37272461 8.40194336 -0.37272461 8.40194336 -0.30664062 6.96289062 C-0.20061335 4.64207146 -0.09854971 2.32114675 0 0 Z " fill="#7E69A1" transform="translate(739,223)"/>
<path d="M0 0 C0.66 0 1.32 0 2 0 C2.33 7.59 2.66 15.18 3 23 C1.35 23 -0.3 23 -2 23 C-1.505 21.515 -1.505 21.515 -1 20 C-0.8535286 18.44733347 -0.75305926 16.89004338 -0.68359375 15.33203125 C-0.64169922 14.43935547 -0.59980469 13.54667969 -0.55664062 12.62695312 C-0.51732422 11.69818359 -0.47800781 10.76941406 -0.4375 9.8125 C-0.37272461 8.40194336 -0.37272461 8.40194336 -0.30664062 6.96289062 C-0.20061335 4.64207146 -0.09854971 2.32114675 0 0 Z " fill="#7D69A1" transform="translate(496,223)"/>
<path d="M0 0 C0.66 0.33 1.32 0.66 2 1 C2 8.26 2 15.52 2 23 C0.68 23 -0.64 23 -2 23 C-1.86183041 19.35383329 -1.71318466 15.70816926 -1.5625 12.0625 C-1.50352539 10.50112305 -1.50352539 10.50112305 -1.44335938 8.90820312 C-1.40146484 7.91884766 -1.35957031 6.92949219 -1.31640625 5.91015625 C-1.27974854 4.99371338 -1.24309082 4.07727051 -1.20532227 3.13305664 C-1 1 -1 1 0 0 Z " fill="#745E99" transform="translate(600,223)"/>
<path d="M0 0 C1.98 0 3.96 0 6 0 C1.75259665 3.45101522 -2.61105071 6.73279209 -7 10 C-6.34 10.66 -5.68 11.32 -5 12 C-10.75 13.125 -10.75 13.125 -13 12 C-13 9.36 -13 6.72 -13 4 C-12.67 4 -12.34 4 -12 4 C-12 6.31 -12 8.62 -12 11 C-10.18104721 9.73841989 -8.3700098 8.46542094 -6.5625 7.1875 C-5.55316406 6.47980469 -4.54382813 5.77210938 -3.50390625 5.04296875 C-0.76195543 3.1777713 -0.76195543 3.1777713 0 0 Z " fill="#715B97" transform="translate(463,220)"/>
<path d="M0 0 C0.99 0 1.98 0 3 0 C3.09733092 7.09434233 3.10087193 13.98194143 2 21 C1.67 21 1.34 21 1 21 C-0.10087193 13.98194143 -0.09733092 7.09434233 0 0 Z " fill="#62498A" transform="translate(895,220)"/>
<path d="M0 0 C6.27 0 12.54 0 19 0 C19 1.65 19 3.3 19 5 C14.125 4.125 14.125 4.125 13 3 C10.81707226 2.76518307 8.62796826 2.58636677 6.4375 2.4375 C4.64119141 2.31181641 4.64119141 2.31181641 2.80859375 2.18359375 C1.88175781 2.12300781 0.95492187 2.06242188 0 2 C0 1.34 0 0.68 0 0 Z " fill="#7D69A1" transform="translate(801,220)"/>
<path d="M0 0 C9.78585462 -0.57563851 9.78585462 -0.57563851 14 3 C15.3125 5.1875 15.3125 5.1875 16 7 C14.02 7 12.04 7 10 7 C10 6.34 10 5.68 10 5 C6.77484237 3.26337666 3.48670834 2.1094072 0 1 C0 0.67 0 0.34 0 0 Z " fill="#664E8E" transform="translate(537,220)"/>
<path d="M0 0 C0.99 0 1.98 0 3 0 C2.67 6.93 2.34 13.86 2 21 C1.67 21 1.34 21 1 21 C-0.32719886 14.03220597 -0.08825381 7.07011089 0 0 Z " fill="#5D4487" transform="translate(881,220)"/>
<path d="M0 0 C0 1.65 0 3.3 0 5 C-5.94 5 -11.88 5 -18 5 C-17.67 4.34 -17.34 3.68 -17 3 C-16.39671875 3.02320313 -15.7934375 3.04640625 -15.171875 3.0703125 C-14.37265625 3.08835938 -13.5734375 3.10640625 -12.75 3.125 C-11.56664062 3.15980469 -11.56664062 3.15980469 -10.359375 3.1953125 C-7.76602876 2.98063152 -6.23678981 2.29045566 -4 1 C-2 0 -2 0 0 0 Z " fill="#715A96" transform="translate(728,241)"/>
<path d="M0 0 C4.29 0 8.58 0 13 0 C13 0.66 13 1.32 13 2 C12.09507812 2.09087891 12.09507812 2.09087891 11.171875 2.18359375 C9.97304688 2.30927734 9.97304688 2.30927734 8.75 2.4375 C7.96109375 2.51871094 7.1721875 2.59992188 6.359375 2.68359375 C4.17635361 2.97634993 2.1226818 3.42064419 0 4 C0 2.68 0 1.36 0 0 Z " fill="#7D69A1" transform="translate(671,234)"/>
<path d="M0 0 C0.99 0.33 1.98 0.66 3 1 C3.36923077 8.50769231 3.36923077 8.50769231 1.5 11 C1.005 11.33 0.51 11.66 0 12 C-0.99 11.67 -1.98 11.34 -3 11 C-2.505 10.67 -2.01 10.34 -1.5 10 C0.88179561 6.82427253 0.19168226 3.89753934 0 0 Z " fill="#634B8C" transform="translate(698,223)"/>
<path d="M0 0 C1.32 0 2.64 0 4 0 C3.67 0.99 3.34 1.98 3 3 C2.85426942 4.47965926 2.75336732 5.96403843 2.68359375 7.44921875 C2.64169922 8.29677734 2.59980469 9.14433594 2.55664062 10.01757812 C2.49766602 11.33918945 2.49766602 11.33918945 2.4375 12.6875 C2.39431641 13.58017578 2.35113281 14.47285156 2.30664062 15.39257812 C2.20064647 17.59490108 2.09857949 19.79733473 2 22 C1.67 22 1.34 22 1 22 C0.67 14.74 0.34 7.48 0 0 Z " fill="#5C4386" transform="translate(757,220)"/>
<path d="M0 0 C1.32 0 2.64 0 4 0 C3.67 0.99 3.34 1.98 3 3 C2.85426942 4.47965926 2.75336732 5.96403843 2.68359375 7.44921875 C2.64169922 8.29677734 2.59980469 9.14433594 2.55664062 10.01757812 C2.49766602 11.33918945 2.49766602 11.33918945 2.4375 12.6875 C2.39431641 13.58017578 2.35113281 14.47285156 2.30664062 15.39257812 C2.20064647 17.59490108 2.09857949 19.79733473 2 22 C1.67 22 1.34 22 1 22 C0.67 14.74 0.34 7.48 0 0 Z " fill="#5D4487" transform="translate(514,220)"/>
<path d="M0 0 C1.32 0 2.64 0 4 0 C3.67 0.99 3.34 1.98 3 3 C2.85426942 4.47965926 2.75336732 5.96403843 2.68359375 7.44921875 C2.64169922 8.29677734 2.59980469 9.14433594 2.55664062 10.01757812 C2.49766602 11.33918945 2.49766602 11.33918945 2.4375 12.6875 C2.39431641 13.58017578 2.35113281 14.47285156 2.30664062 15.39257812 C2.20064647 17.59490108 2.09857949 19.79733473 2 22 C1.67 22 1.34 22 1 22 C0.67 14.74 0.34 7.48 0 0 Z " fill="#5C4286" transform="translate(617,220)"/>
<path d="M0 0 C1.231394 3.69418201 0.64432764 6.2056261 0 10 C-1.65 10 -3.3 10 -5 10 C-3.33333333 6.66666667 -1.66666667 3.33333333 0 0 Z " fill="#77619B" transform="translate(416,236)"/>
<path d="M0 0 C2.08304538 -0.05418326 4.16649768 -0.09287551 6.25 -0.125 C7.99023438 -0.15980469 7.99023438 -0.15980469 9.765625 -0.1953125 C12.82786046 -0.0103949 14.44202751 0.39176977 17 2 C16.34 2.66 15.68 3.32 15 4 C14.45859375 3.67257813 13.9171875 3.34515625 13.359375 3.0078125 C10.49280933 1.78335233 8.3547013 1.80107854 5.25 1.875 C4.26515625 1.89304688 3.2803125 1.91109375 2.265625 1.9296875 C1.51796875 1.95289063 0.7703125 1.97609375 0 2 C0 1.34 0 0.68 0 0 Z " fill="#78639D" transform="translate(682,220)"/>
<path d="M0 0 C1.32 0 2.64 0 4 0 C3.67 0.99 3.34 1.98 3 3 C2.77548542 5.22574335 2.59217122 7.45581519 2.4375 9.6875 C2.35371094 10.86699219 2.26992188 12.04648438 2.18359375 13.26171875 C2.12300781 14.16535156 2.06242188 15.06898438 2 16 C1.67 16 1.34 16 1 16 C0.67 10.72 0.34 5.44 0 0 Z " fill="#604789" transform="translate(848,226)"/>
<path d="M0 0 C3.3 0 6.6 0 10 0 C10 1.32 10 2.64 10 4 C6.7 3.01 3.4 2.02 0 1 C0 0.67 0 0.34 0 0 Z " fill="#5F4688" transform="translate(809,221)"/>
<path d="M0 0 C3.3 0 6.6 0 10 0 C10 0.99 10 1.98 10 3 C6.08393425 2.46599103 3.60661066 1.80330533 0 0 Z " fill="#5F4689" transform="translate(669,221)"/>
</svg>
