<svg width="25" height="25" viewBox="0 0 25 25" fill="none" xmlns="http://www.w3.org/2000/svg">
<path d="M12.4989 15.1042C14.2281 15.1042 15.6239 13.7083 15.6239 11.9792V5.72916C15.6239 3.99999 14.2281 2.60416 12.4989 2.60416C10.7698 2.60416 9.37393 3.99999 9.37393 5.72916V11.9792C9.37393 13.7083 10.7698 15.1042 12.4989 15.1042ZM18.6552 11.9792C18.1448 11.9792 17.7177 12.3542 17.6343 12.8646C17.2073 15.3125 15.0718 17.1875 12.4989 17.1875C9.92601 17.1875 7.79059 15.3125 7.36351 12.8646C7.28018 12.3542 6.85309 11.9792 6.34268 11.9792C5.70726 11.9792 5.20726 12.5417 5.30101 13.1667C5.81143 16.2917 8.31143 18.7396 11.4573 19.1875V21.3542C11.4573 21.9271 11.926 22.3958 12.4989 22.3958C13.0718 22.3958 13.5406 21.9271 13.5406 21.3542V19.1875C16.6864 18.7396 19.1864 16.2917 19.6968 13.1667C19.801 12.5417 19.2906 11.9792 18.6552 11.9792Z" fill="#E8DDFF"/>
</svg>
