<svg width="45" height="45" viewBox="0 0 45 45" fill="none" xmlns="http://www.w3.org/2000/svg">
<path d="M13.125 5.625H7.5V11.25H3.75V1.875H13.125V5.625ZM41.25 11.25V1.875H31.875V5.625H37.5V11.25H41.25ZM13.125 39.375H7.5V33.75H3.75V43.125H13.125V39.375ZM37.5 33.75V39.375H31.875V43.125H41.25V33.75H37.5ZM31.875 11.25H13.125V33.75H31.875V11.25ZM35.625 33.75C35.625 35.8125 33.9375 37.5 31.875 37.5H13.125C11.0625 37.5 9.375 35.8125 9.375 33.75V11.25C9.375 9.1875 11.0625 7.5 13.125 7.5H31.875C33.9375 7.5 35.625 9.1875 35.625 11.25V33.75ZM28.125 15H16.875V18.75H28.125V15ZM28.125 20.625H16.875V24.375H28.125V20.625ZM28.125 26.25H16.875V30H28.125V26.25Z" fill="#E8DDFF"/>
</svg>
