<svg width="25" height="25" viewBox="0 0 25 25" fill="none" xmlns="http://www.w3.org/2000/svg">
<path d="M16.4115 14.849H15.5885L15.2969 14.5677C16.3177 13.3802 16.9323 11.8385 16.9323 10.1615C16.9323 6.42188 13.901 3.39062 10.1615 3.39062C6.42188 3.39062 3.39062 6.42188 3.39062 10.1615C3.39062 13.901 6.42188 16.9323 10.1615 16.9323C11.8385 16.9323 13.3802 16.3177 14.5677 15.2969L14.849 15.5885V16.4115L20.0573 21.6094L21.6094 20.0573L16.4115 14.849ZM10.1615 14.849C7.56771 14.849 5.47396 12.7552 5.47396 10.1615C5.47396 7.56771 7.56771 5.47396 10.1615 5.47396C12.7552 5.47396 14.849 7.56771 14.849 10.1615C14.849 12.7552 12.7552 14.849 10.1615 14.849Z" fill="#E8DDFF"/>
</svg>
