<svg width="28" height="28" viewBox="0 0 28 28" fill="none" xmlns="http://www.w3.org/2000/svg">
<path d="M22.75 14C22.75 13.7317 22.7383 13.475 22.715 13.2067L24.885 11.5617C25.3516 11.2117 25.48 10.5583 25.1883 10.045L23.0066 6.27668C22.715 5.76334 22.085 5.55334 21.5483 5.78668L19.04 6.84834C18.6083 6.54501 18.1533 6.27668 17.675 6.05501L17.3366 3.36001C17.2666 2.77668 16.765 2.33334 16.1816 2.33334H11.83C11.235 2.33334 10.7333 2.77668 10.6633 3.36001L10.325 6.05501C9.84664 6.27668 9.39164 6.54501 8.95998 6.84834L6.45164 5.78668C5.91498 5.55334 5.28498 5.76334 4.99331 6.27668L2.81164 10.0567C2.51998 10.57 2.64831 11.2117 3.11498 11.5733L5.28498 13.2183C5.26164 13.475 5.24998 13.7317 5.24998 14C5.24998 14.2683 5.26164 14.525 5.28498 14.7933L3.11498 16.4383C2.64831 16.7883 2.51998 17.4417 2.81164 17.955L4.99331 21.7233C5.28498 22.2367 5.91498 22.4467 6.45164 22.2133L8.95998 21.1517C9.39164 21.455 9.84664 21.7233 10.325 21.945L10.6633 24.64C10.7333 25.2233 11.235 25.6667 11.8183 25.6667H16.17C16.7533 25.6667 17.255 25.2233 17.325 24.64L17.6633 21.945C18.1416 21.7233 18.5966 21.455 19.0283 21.1517L21.5366 22.2133C22.0733 22.4467 22.7033 22.2367 22.995 21.7233L25.1766 17.955C25.4683 17.4417 25.34 16.8 24.8733 16.4383L22.7033 14.7933C22.7383 14.525 22.75 14.2683 22.75 14ZM14.0466 18.0833C11.795 18.0833 9.96331 16.2517 9.96331 14C9.96331 11.7483 11.795 9.91668 14.0466 9.91668C16.2983 9.91668 18.13 11.7483 18.13 14C18.13 16.2517 16.2983 18.0833 14.0466 18.0833Z" fill="black"/>
</svg>
