<svg width="45" height="45" viewBox="0 0 45 45" fill="none" xmlns="http://www.w3.org/2000/svg">
<path d="M23.1989 28.9758C24.4927 28.9758 25.3552 27.682 24.8864 26.5008L16.9177 6.23203C16.5239 5.23828 15.5864 4.60078 14.5364 4.60078C13.4864 4.60078 12.5489 5.23828 12.1552 6.23203L4.18644 26.5008C3.71769 27.682 4.59894 28.9758 5.87394 28.9758C6.62394 28.9758 7.29894 28.507 7.58019 27.7945L9.23019 23.3508H19.8052L21.4927 27.8133C21.7739 28.507 22.4489 28.9758 23.1989 28.9758ZM10.6552 19.6008L14.5364 9.25078L18.4177 19.6008H10.6552ZM37.7677 22.0195L23.9114 35.8758L18.3427 30.307C17.6114 29.5758 16.4302 29.5758 15.6989 30.307C14.9677 31.0383 14.9677 32.2195 15.6989 32.9508L22.5989 39.8508C23.3302 40.582 24.5114 40.582 25.2427 39.8508L40.3927 24.682C41.1239 23.9508 41.1239 22.7695 40.3927 22.0383C39.6802 21.307 38.4802 21.307 37.7677 22.0195Z" fill="#E8DDFF"/>
</svg>
