<svg width="25" height="25" viewBox="0 0 25 25" fill="none" xmlns="http://www.w3.org/2000/svg">
<path d="M3.125 10.4186V14.5852C3.125 15.1581 3.59375 15.6269 4.16667 15.6269H7.29167L10.7187 19.054C11.375 19.7102 12.5 19.2415 12.5 18.3144V6.67897C12.5 5.75189 11.375 5.28314 10.7187 5.93939L7.29167 9.37689H4.16667C3.59375 9.37689 3.125 9.84564 3.125 10.4186ZM17.1875 12.5019C17.1875 10.6581 16.125 9.07481 14.5833 8.30397V16.6894C16.125 15.929 17.1875 14.3456 17.1875 12.5019ZM14.5833 4.63731V4.84564C14.5833 5.24147 14.8438 5.58522 15.2083 5.73106C17.8958 6.80397 19.7917 9.43939 19.7917 12.5019C19.7917 15.5644 17.8958 18.1998 15.2083 19.2727C14.8333 19.4186 14.5833 19.7623 14.5833 20.1581V20.3665C14.5833 21.0227 15.2396 21.4811 15.8438 21.2519C19.375 19.9081 21.875 16.5019 21.875 12.5019C21.875 8.50189 19.375 5.09564 15.8438 3.75189C15.2396 3.51231 14.5833 3.98106 14.5833 4.63731Z" fill="#583E83"/>
</svg>
